<svg width="307" height="456" viewBox="0 0 307 456" fill="none" xmlns="http://www.w3.org/2000/svg">
<path opacity="0.05" fill-rule="evenodd" clip-rule="evenodd" d="M7.76038 0.241776C8.90765 0.702549 10.6798 4.71727 10.7149 6.93539C10.7548 9.42832 11.4929 10.5038 13.4476 10.916C14.5131 11.1407 15.2481 11.9466 16.4492 14.2065C17.8318 16.8084 18.2725 17.2336 19.8196 17.4583C21.7329 17.7362 25.5244 21.3335 26.2015 23.5145C26.6143 24.8441 29.7524 29.5076 31.5044 31.3941C32.1639 32.1049 32.7039 32.9794 32.7039 33.3374C32.7039 33.6954 32.8875 33.9883 33.1115 33.9883C33.6955 33.9883 37.8764 40.4593 37.8764 41.3627C37.8764 41.7786 38.749 43.0994 39.8161 44.2978C42.0724 46.8321 43.5662 49.3508 43.5662 50.6211C43.5662 52.9255 48.2281 59.2998 49.9134 59.2998C50.7239 59.2998 52.4546 61.0572 53.3474 62.7866C54.0033 64.0568 55.463 64.373 55.463 63.2443C55.463 62.8569 54.939 61.9854 54.2992 61.3072C53.6593 60.6295 52.6698 59.1449 52.1008 58.0084C51.5319 56.872 50.5424 55.3636 49.9025 54.6559C49.2627 53.9488 48.7387 53.2096 48.7387 53.0143C48.7387 52.8185 48.4475 52.351 48.0921 51.9755C47.7363 51.6005 47.1321 50.6856 46.7493 49.9428C46.3661 49.2 45.4934 47.9902 44.8096 47.2536C44.1258 46.517 43.5662 45.7483 43.5662 45.5448C43.5662 45.3418 43.2584 44.8087 42.8824 44.3603C42.5058 43.9114 41.9001 42.4986 41.5354 41.2201C41.1713 39.9417 40.5294 37.9095 40.1094 36.7044C39.4142 34.7089 39.4245 34.432 40.2273 33.605C41.207 32.5961 45.2467 30.0113 48.5882 28.255C51.1232 26.9227 51.8546 27.2502 53.1943 30.3145C53.6428 31.3404 54.686 33.589 55.5121 35.3107C56.3387 37.0324 57.0147 38.6156 57.0147 38.8295C57.0147 39.0428 57.6168 40.5398 58.3529 42.1562C61.2686 48.5595 61.1279 48.3699 67.1591 53.9932C68.6136 55.3492 70.8068 57.8535 72.0326 59.5581C73.2585 61.2628 74.8036 63.2123 75.4662 63.89C76.1283 64.5682 76.6703 65.404 76.6703 65.747C76.6703 66.0906 77.1534 66.8086 77.7441 67.3422C78.3348 67.8763 79.6595 69.83 80.6884 71.6839C81.7167 73.5378 82.688 75.1712 82.8468 75.3133C83.2074 75.6351 84.9619 78.8445 87.4421 83.7172C88.4875 85.7716 89.4594 87.5687 89.6016 87.7108C89.7439 87.8528 90.4841 89.2475 91.247 90.8101C100.018 108.782 100.417 109.551 102.404 112.329C103.044 113.224 103.567 114.227 103.567 114.557C103.567 114.887 104.149 115.919 104.861 116.851C105.572 117.782 106.154 118.686 106.154 118.86C106.154 119.034 107.082 120.174 108.217 121.394C109.351 122.614 110.282 123.788 110.286 124.003C110.294 124.565 116.056 132.876 116.578 133.082C116.819 133.177 117.016 133.593 117.016 134.007C117.016 134.421 117.459 135.389 118 136.159C118.984 137.56 122.521 142.951 123.466 144.491C123.741 144.94 125.429 147.56 127.216 150.313C129.002 153.066 130.465 155.509 130.465 155.742C130.465 155.975 131.047 156.793 131.758 157.559C132.469 158.324 133.051 159.158 133.051 159.41C133.051 159.662 133.632 160.544 134.343 161.369C135.054 162.195 135.636 163.054 135.637 163.279C135.637 163.503 136.1 164.317 136.665 165.087C137.231 165.857 137.929 167.765 138.215 169.328C138.847 172.768 141.157 177.439 142.749 178.491C143.39 178.915 143.913 179.532 143.913 179.863C143.913 180.194 144.771 181.271 145.819 182.257C148.024 184.331 152.838 190.791 154.903 194.448C155.684 195.832 156.52 197.312 156.761 197.739C157.002 198.165 157.435 198.978 157.723 199.546C158.012 200.115 158.6 200.649 159.029 200.734C160.2 200.964 162.917 198.442 163.635 196.458C163.983 195.498 164.685 194.604 165.195 194.47C165.704 194.337 166.511 193.412 166.987 192.416C167.463 191.419 168.397 190.312 169.064 189.956C169.731 189.6 170.397 188.938 170.544 188.487C170.691 188.035 171.975 186.427 173.397 184.913C174.82 183.399 175.983 181.947 175.983 181.685C175.983 181.423 176.176 181.209 176.413 181.209C176.649 181.209 177.154 180.627 177.535 179.917C177.915 179.207 178.485 178.626 178.8 178.626C179.496 178.626 181.155 176.767 181.155 175.988C181.155 175.276 182.78 172.336 183.55 171.654C183.872 171.369 184.286 170.488 184.47 169.697C184.668 168.846 185.307 168.067 186.034 167.791C186.709 167.535 187.415 167.078 187.601 166.777C188.084 165.996 190.03 166.128 191.211 167.02C192.788 168.211 195.28 167.967 196.673 166.487C197.341 165.776 198.408 165.195 199.045 165.195C200.176 165.195 201.209 164.165 203.915 160.337C204.626 159.332 205.531 158.502 205.926 158.494C206.483 158.483 206.576 157.901 206.34 155.908C206.112 153.983 206.233 153.139 206.822 152.551C207.825 151.549 209.294 151.544 210.122 152.539C210.476 152.965 211.182 153.314 211.692 153.314C213.28 153.314 216.329 156.705 216.329 158.47C216.329 159.512 216.071 160.029 215.553 160.029C215.102 160.029 214.777 160.498 214.777 161.146C214.777 162.304 211.97 165.195 210.844 165.195C210.491 165.195 209.934 166.005 209.607 166.995C209.28 167.985 208.495 169.205 207.863 169.707C207.232 170.208 205.988 171.678 205.1 172.974C204.211 174.268 203.131 175.621 202.698 175.979C202.266 176.337 201.762 177.311 201.58 178.142C201.263 179.583 200.517 180.45 195.681 185.006C194.52 186.1 193.569 187.282 193.569 187.631C193.569 187.98 193.045 188.507 192.406 188.8C188.546 190.574 188.236 190.84 187.128 193.337C186.496 194.764 185.591 196.25 185.119 196.639C184.646 197.029 184.259 197.866 184.259 198.499C184.259 199.165 183.617 200.142 182.736 200.816C181.731 201.585 181.159 202.533 181.055 203.605C180.934 204.846 180.617 205.268 179.711 205.397C178.462 205.574 171.261 212.332 170.67 213.881C170.481 214.378 170.086 214.785 169.792 214.785C168.981 214.785 169.155 216.639 170.034 217.368C170.461 217.722 170.81 218.796 170.81 219.755C170.81 220.715 170.988 221.5 171.205 221.5C171.62 221.5 172.284 222.631 173.636 225.633C175.544 229.874 176.123 231.1 176.56 231.832C176.815 232.258 177.161 232.955 177.329 233.381C178.102 235.342 179.359 237.514 179.721 237.514C179.941 237.514 180.121 237.775 180.121 238.094C180.121 238.414 181.052 240.067 182.19 241.769C183.328 243.471 184.259 244.99 184.259 245.143C184.259 245.297 184.841 246.185 185.552 247.116C186.263 248.048 186.845 248.914 186.845 249.043C186.845 249.36 191.108 255.785 191.534 256.11C191.72 256.252 192.545 257.425 193.368 258.716C196.222 263.197 202.012 271.09 202.444 271.09C202.684 271.09 202.88 271.428 202.88 271.839C202.88 272.252 203.171 272.774 203.527 273.002C203.882 273.229 204.498 273.996 204.897 274.706C205.578 275.922 215.908 290.252 217.079 291.606C218.617 293.384 218.915 293.817 218.915 294.271C218.915 294.543 219.091 294.843 219.306 294.939C219.522 295.033 220.505 296.157 221.491 297.435C222.477 298.714 223.581 299.946 223.944 300.173C224.307 300.4 224.605 300.814 224.605 301.092C224.605 301.556 231.741 311.227 233.28 312.852C233.643 313.234 234.289 314.222 234.716 315.047C235.144 315.873 235.72 316.548 235.998 316.548C236.275 316.548 236.501 316.791 236.501 317.087C236.501 317.384 237.083 318.253 237.795 319.019C238.506 319.785 239.088 320.62 239.088 320.874C239.088 321.129 239.611 321.838 240.251 322.45C241.972 324.096 243.148 326.741 245.09 333.336C246.567 338.349 250.132 343.409 252.188 343.409C252.744 343.409 253.518 343.816 253.909 344.313C255.405 346.215 261.608 355.609 262.18 356.84C262.51 357.55 263.385 358.76 264.124 359.529C264.863 360.298 265.468 361.051 265.468 361.202C265.468 361.353 266.573 362.894 267.925 364.626C269.276 366.358 270.614 368.172 270.899 368.656C271.183 369.14 272.289 370.597 273.356 371.893C274.422 373.19 275.295 374.498 275.295 374.801C275.295 375.103 275.478 375.427 275.702 375.522C275.926 375.617 276.915 376.732 277.901 378.001C278.886 379.269 280.116 380.78 280.634 381.358C282.419 383.348 285.64 388.469 285.638 389.313C285.635 391.01 283.666 393.311 280.603 395.199C278.878 396.262 277.227 397.132 276.934 397.132C276.315 397.132 276.022 398.031 275.586 401.264C275.258 403.699 275.593 404.291 278.757 406.868C279.381 407.376 280.382 409.033 280.98 410.55C281.579 412.067 282.518 413.795 283.067 414.389C285.962 417.524 287.177 419.176 287.184 419.989C287.189 420.486 287.386 420.893 287.624 420.893C287.86 420.893 288.954 422.197 290.053 423.79C291.572 425.994 292.135 427.405 292.405 429.684C292.65 431.761 293.204 433.29 294.212 434.665C298.938 441.114 300.123 442.555 302.58 444.84C304.074 446.229 305.296 447.592 305.296 447.87C305.296 450.108 300.886 454.47 298.624 454.47C298.091 454.47 296.989 454.817 296.174 455.242C294.486 456.12 292.365 456.27 292.365 455.509C292.365 455.228 292.032 454.589 291.626 454.088C288.949 450.791 285.64 446.157 285.64 445.707C285.64 445.413 285.408 445.172 285.123 445.172C284.839 445.172 284.606 444.823 284.606 444.397C284.606 443.971 284.418 443.622 284.188 443.622C283.958 443.622 283.351 442.634 282.839 441.427C280.93 436.929 279.927 435.011 278.918 433.929C278.348 433.318 277.882 432.659 277.882 432.464C277.882 431.479 273.253 424.938 270.825 422.494C269.301 420.959 268.054 419.559 268.054 419.383C268.054 419.207 266.981 417.906 265.669 416.491C264.358 415.077 262.935 413.397 262.506 412.758C262.078 412.119 261.504 411.595 261.23 411.595C260.716 411.595 257.709 408.785 257.709 408.304C257.709 408.155 257.127 407.406 256.416 406.639C255.704 405.873 255.123 405.008 255.123 404.716C255.123 404.425 254.715 403.732 254.217 403.177C253.335 402.193 253.354 402.177 254.993 402.532L256.674 402.896L256.667 400.401C256.657 397.372 255.875 395.765 253.854 394.631C253.014 394.16 251.83 393.309 251.224 392.741C249.427 391.057 244.721 387.084 241.738 384.733C240.209 383.527 238.844 382.105 238.704 381.571C238.564 381.038 238.293 380.602 238.101 380.602C237.91 380.602 237.073 379.439 236.243 378.019C235.412 376.598 234.564 375.436 234.358 375.436C234.153 375.436 233.823 374.913 233.625 374.274C233.427 373.635 232.132 371.546 230.745 369.632C229.359 367.719 228.225 365.821 228.225 365.414C228.225 365.007 228.043 364.597 227.82 364.502C227.083 364.189 223.058 357.407 221.97 354.646C220.432 350.743 218.812 347.912 217.622 347.05C215.999 345.873 212.209 342.159 212.199 341.737C212.194 341.527 210.91 339.298 209.346 336.784C207.781 334.27 206.501 331.71 206.501 331.095C206.501 330.481 206.268 329.978 205.984 329.978C205.699 329.978 205.466 329.73 205.466 329.425C205.466 328.668 204.335 327.6 203.114 327.205C201.304 326.619 196.362 321.559 192.959 316.806C191.127 314.249 189.459 311.808 189.251 311.382C189.043 310.956 188.592 310.143 188.247 309.574C186.509 306.707 182.018 298.661 179.596 294.077C175.609 286.532 175.234 285.887 172.095 281.163C170.961 279.459 169.86 277.986 169.646 277.892C169.433 277.797 169.259 277.41 169.259 277.031C169.259 276.652 169.082 276.265 168.867 276.17C168.651 276.075 167.664 274.952 166.673 273.673C165.682 272.395 164.447 270.884 163.927 270.316C163.408 269.747 162.487 268.469 161.881 267.474C161.274 266.48 160.639 265.55 160.468 265.408C160.104 265.107 157.854 261.948 157.103 260.686C156.819 260.208 155.784 258.692 154.803 257.318C153.822 255.943 151.666 252.785 150.012 250.299C147.347 246.296 146.826 245.779 145.458 245.779C144.577 245.779 143.905 246.056 143.895 246.425C143.884 246.78 142.779 248.27 141.438 249.736C140.096 251.202 138.625 253.178 138.167 254.126C137.709 255.075 137.059 256.436 136.722 257.15C136.063 258.549 133.291 261.588 129.012 265.602C127.535 266.988 126.327 268.464 126.327 268.884C126.327 269.921 123.649 274.859 122.792 275.402C120.95 276.569 117.016 281.011 117.016 281.922C117.016 282.489 115.949 284.061 114.646 285.416C113.342 286.771 111.976 288.589 111.611 289.457C110.868 291.218 108.633 293.819 107.862 293.819C106.777 293.819 104.458 296.807 103.647 299.25C102.991 301.224 102.515 301.865 101.607 301.994C100.944 302.087 99.9193 302.938 99.2794 303.924C98.651 304.894 97.8927 305.69 97.5947 305.694C96.943 305.702 93.2224 309.427 93.2224 310.072C93.2224 310.322 92.8572 310.929 92.4113 311.421C91.7394 312.163 91.712 312.496 92.2531 313.361C93.1826 314.847 92.1217 316.929 89.9777 317.823C87.0454 319.047 86.2245 320.397 86.3528 323.786C86.4779 327.09 85.5469 328.857 83.0299 330.091C81.6173 330.784 81.4533 331.015 79.9978 334.369C78.7729 337.191 77.1002 338.623 72.6761 340.637C69.0377 342.292 68.9115 342.411 68.9115 344.171C68.9115 345.445 68.6788 345.992 68.1356 345.992C67.5325 345.992 67.3851 345.407 67.4741 343.369C67.5672 341.231 67.9091 340.371 69.3248 338.72C70.5812 337.254 71.4636 336.694 72.5168 336.694C73.6444 336.694 74.0463 336.398 74.3023 335.379C74.4844 334.655 74.4989 333.846 74.3344 333.581C74.1704 333.316 74.2765 332.651 74.5703 332.103C75.1796 330.966 74.2449 329.828 69.4288 325.846C66.2027 323.178 63.739 320.737 63.739 320.207C63.739 320.006 64.1466 319.392 64.6442 318.841C65.1418 318.29 66.1091 316.696 66.7934 315.298C67.4772 313.9 68.4083 312.31 68.8624 311.764C70.9976 309.194 74.997 305.464 76.8964 304.272C78.0519 303.547 79.2674 302.583 79.5964 302.131C79.9254 301.679 80.9149 300.512 81.7947 299.537C82.6746 298.563 83.3946 297.484 83.3946 297.139C83.3946 296.795 83.7339 296.382 84.1482 296.224C84.5631 296.065 85.5288 294.936 86.2948 293.715C87.0604 292.494 87.8326 291.378 88.01 291.236C88.5847 290.776 90.1189 288.188 90.1189 287.678C90.1189 287.406 90.7587 286.517 91.5413 285.703C92.3239 284.888 93.3 283.717 93.7107 283.099C94.1219 282.482 95.1078 281.834 95.9023 281.659C97.6377 281.279 99.1843 279.236 100.446 275.659C101.357 273.076 104.044 269.541 105.097 269.541C105.886 269.541 107.705 267.854 107.705 267.122C107.705 266.77 108.869 265.302 110.292 263.859C111.714 262.415 112.878 261.085 112.878 260.901C112.878 260.717 113.809 259.465 114.947 258.117C116.12 256.728 117.016 255.123 117.016 254.411C117.016 253.285 118.261 251.585 122.577 246.817C123.216 246.11 123.742 245.296 123.744 245.009C123.746 244.722 124.542 243.948 125.512 243.287C127.876 241.679 131.764 237.411 133.899 234.079C136.384 230.2 136.25 228.571 133.051 223.725C131.628 221.57 130.465 219.607 130.465 219.362C130.465 219.118 130.237 218.918 129.957 218.918C129.678 218.918 129.304 218.336 129.125 217.626C128.947 216.916 128.593 216.335 128.34 216.335C128.086 216.335 127.878 216.078 127.878 215.763C127.878 215.449 127.207 214.345 126.387 213.31C125.567 212.275 124.252 210.265 123.465 208.845C122.678 207.424 121.488 205.707 120.818 205.029C120.15 204.351 119.602 203.535 119.602 203.216C119.602 202.896 119.02 202.008 118.309 201.242C117.598 200.477 117.016 199.707 117.016 199.533C117.016 198.949 112.144 192.324 111.211 191.639C110.706 191.269 110.292 190.743 110.292 190.473C110.292 189.897 104.856 182.459 104.089 181.986C103.802 181.809 103.567 181.26 103.567 180.765C103.567 180.27 103.295 179.594 102.963 179.262C102.267 178.567 101 175.144 100.989 173.927C100.98 172.975 99.6048 171.291 98.2129 170.528C97.2818 170.017 95.3421 165.336 95.3085 163.516C95.2992 163.019 95.0587 162.612 94.7742 162.612C94.4897 162.612 94.2569 162.221 94.2569 161.742C94.2569 160.481 92.3317 156.704 91.1405 155.627C90.5787 155.119 90.1189 154.41 90.1189 154.052C90.1189 153.693 89.9425 153.323 89.7273 153.228C89.5116 153.133 88.5309 152.01 87.5471 150.731C86.5638 149.453 85.2273 147.895 84.5771 147.269C83.9269 146.644 83.3946 145.986 83.3946 145.809C83.3946 145.631 82.671 144.764 81.7865 143.881C80.9025 142.997 79.5912 141.388 78.8733 140.305C78.1548 139.221 77.3655 138.334 77.1188 138.334C76.8721 138.334 76.6703 137.859 76.6703 137.279C76.6703 136.699 76.196 135.716 75.6156 135.094C75.0358 134.473 74.4286 133.436 74.2667 132.791C74.1048 132.146 73.7861 131.619 73.559 131.619C73.3325 131.619 72.9808 130.415 72.7785 128.945C72.3787 126.042 71.5056 124.281 66.5073 116.298C64.7001 113.412 63.2218 110.837 63.2218 110.576C63.2218 110.316 62.6699 109.585 61.9954 108.952C61.3209 108.32 60.4136 107.059 59.9796 106.15C56.9009 99.7069 56.1075 98.371 55.075 97.8958C54.1445 97.4671 53.9112 96.935 53.9112 95.2417C53.9112 93.4926 53.6314 92.8991 52.3052 91.8376C49.1763 89.3322 49.0982 89.2098 50.1503 88.4742C50.6701 88.1101 51.6684 87.7314 52.3688 87.6328C53.096 87.53 53.7188 87.0501 53.8212 86.5144C54.1067 85.0179 51.2737 79.9272 48.7387 77.3821C45.9383 74.571 44.6007 72.593 44.6007 71.2624C44.6007 70.719 44.2515 69.9849 43.8248 69.6311C43.3981 69.2772 43.0489 68.6677 43.0489 68.2767C43.0489 67.8851 42.8162 67.5648 42.5316 67.5648C42.2472 67.5648 42.0144 67.2368 42.0144 66.836C42.0144 65.7398 39.0066 63.4323 37.5779 63.4323C36.8884 63.4323 36.3246 63.2438 36.3246 63.0134C36.3246 62.7825 35.917 62.1352 35.4195 61.5742C34.281 60.2921 31.1521 55.7474 31.1521 55.376C31.1521 55.2231 30.6152 54.3584 29.9588 53.4539C29.3029 52.5494 28.3134 50.8799 27.7605 49.7434C27.2075 48.607 26.6329 47.5609 26.4824 47.4189C26.3323 47.2768 25.7598 46.1146 25.2104 44.8361C24.6606 43.5576 22.7467 40.1586 20.9571 37.2829C19.1679 34.4072 17.7035 31.6116 17.7035 31.0702C17.7035 29.8692 16.5315 28.0907 14.2493 25.8276C13.3043 24.8906 12.531 24.0067 12.531 23.8642C12.531 23.6379 9.14145 20.4068 5.53982 17.2C4.10342 15.9205 1.6687 12.0561 1.6687 11.0545C1.6687 10.6464 1.42459 10.2311 1.12665 10.1319C0.828185 10.0327 0.452636 8.67672 0.292297 7.11877L3.01429e-05 4.28594L2.96857 2.09055C5.8895 -0.0697123 6.4476 -0.285118 7.76038 0.241776ZM76.6703 117.463C76.6703 117.916 77.004 118.904 77.4121 119.658C77.8202 120.412 78.2883 121.662 78.4528 122.435C78.6173 123.209 79.178 124.255 79.6994 124.76C80.2202 125.265 81.0825 126.433 81.6148 127.357C82.1475 128.281 82.7403 129.036 82.9327 129.036C83.1251 129.036 83.4288 129.617 83.6072 130.327C83.7857 131.037 84.1601 131.619 84.4389 131.619C84.7183 131.619 84.9464 131.862 84.9464 132.16C84.9464 132.886 87.6816 135.203 88.1777 134.898C88.3933 134.764 88.3364 134.22 88.0514 133.687C87.7659 133.155 87.5326 132.112 87.5326 131.371C87.5326 130.591 86.9404 129.433 86.1273 128.625C84.8734 127.378 79.2566 119.448 79.2566 118.925C79.2566 118.513 77.4664 116.638 77.0728 116.638C76.8514 116.638 76.6703 117.009 76.6703 117.463ZM90.1189 139.091C90.1189 140.011 91.5 144.344 92.3136 145.976C92.6384 146.628 93.7738 147.649 94.8362 148.246C95.9163 148.852 96.9032 149.867 97.0744 150.547C97.2425 151.217 97.6087 151.764 97.8875 151.764C98.1668 151.764 98.3949 152.113 98.3949 152.539C98.3949 152.965 98.5693 153.319 98.7829 153.324C98.9965 153.33 99.8593 154.492 100.7 155.907C101.541 157.322 102.53 158.48 102.899 158.48C103.266 158.48 103.567 158.705 103.567 158.98C103.567 159.255 103.903 159.352 104.312 159.195C104.937 158.956 104.894 158.598 104.051 156.981C103.497 155.92 102.58 154.554 102.013 153.946C101.445 153.338 100.981 152.599 100.981 152.303C100.981 152.007 100.801 151.764 100.581 151.764C100.362 151.764 99.7434 150.951 99.207 149.957C98.6706 148.962 98.0567 148.149 97.8425 148.149C97.6279 148.149 96.9389 147.089 96.3109 145.794C95.0013 143.091 91.3743 138.334 90.6243 138.334C90.3465 138.334 90.1189 138.674 90.1189 139.091ZM106.154 162.903C106.154 164.028 108.183 168.766 109.791 171.394C115.009 179.924 116.931 183.225 117.234 184.181C117.437 184.819 117.82 185.341 118.085 185.341C118.351 185.341 118.568 185.787 118.568 186.332C118.568 186.877 119.382 188.091 120.378 189.029C121.374 189.967 122.189 191.031 122.189 191.395C122.189 191.759 122.479 192.062 122.835 192.067C123.993 192.087 126.175 195.861 126.562 198.513C126.77 199.934 127.732 202.814 128.702 204.914C129.672 207.014 130.472 209.106 130.481 209.563C130.514 211.249 133.104 213.152 134.907 212.816C135.825 212.646 137.052 214.374 137.677 216.719C138.099 218.3 138.682 219.128 139.77 219.69C141.201 220.429 141.346 220.401 142.596 219.153C143.839 217.911 144.209 216.418 144.036 213.336C143.999 212.68 143.316 211.352 142.519 210.384C141.721 209.416 140.527 207.918 139.865 207.056C139.204 206.193 138.357 205.487 137.985 205.487C137.613 205.487 136.893 204.847 136.386 204.066C135.879 203.285 134.969 202.181 134.365 201.613C133.761 201.045 132.95 199.651 132.562 198.515C131.541 195.525 128.89 192.16 127.399 191.963C126.666 191.867 125.76 191.153 125.219 190.248C123.666 187.649 122.189 184.407 122.189 183.601C122.189 182.805 118.209 178.626 117.451 178.626C117.212 178.626 117.016 178.179 117.016 177.634C117.016 176.515 115.41 173.468 114.818 173.463C114.604 173.462 114.43 173.111 114.43 172.685C114.43 172.259 114.197 171.91 113.913 171.91C113.628 171.91 113.395 171.578 113.395 171.172C113.395 170.767 113.104 170.124 112.749 169.744C112.393 169.364 111.671 168.21 111.145 167.179C109.992 164.921 107.299 161.579 106.633 161.579C106.369 161.579 106.154 162.175 106.154 162.903ZM154.037 237.882C154.586 238.958 155.26 240 155.537 240.198C155.814 240.396 156.046 241.604 156.054 242.884C156.062 244.164 156.359 245.501 156.715 245.856C157.071 246.212 157.362 246.773 157.362 247.103C157.362 248.122 159.942 250.345 161.53 250.693C162.944 251.003 165.121 253.296 165.121 254.475C165.121 255.006 167.532 260.545 169.165 263.764C169.643 264.707 170.432 265.907 170.917 266.43C172.041 267.643 175.983 274.057 175.983 274.672C175.983 274.928 176.162 275.214 176.38 275.309C176.599 275.404 177.58 276.76 178.561 278.322C179.543 279.885 180.502 281.28 180.694 281.422C180.885 281.564 181.557 282.668 182.186 283.875C182.814 285.083 183.538 286.071 183.794 286.071C184.049 286.071 184.259 286.346 184.259 286.682C184.259 287.019 184.761 288.329 185.374 289.594C186.266 291.434 186.369 292.085 185.891 292.85C185.015 294.251 185.165 295.938 186.322 297.693C187.624 299.669 190.928 302.552 192.291 302.902C193.294 303.16 196.156 307.042 196.156 308.144C196.156 308.435 196.505 308.962 196.932 309.316C197.358 309.67 197.707 310.344 197.707 310.814C197.707 311.935 200.526 314.998 201.558 314.998C202.571 314.998 202.604 313.775 201.613 312.954C201.201 312.612 200.603 311.48 200.284 310.437C199.677 308.452 198.938 306.579 198.16 305.054C197.621 303.998 198.413 303.81 199.249 304.796C201.806 307.81 202.546 308.772 203.519 310.349C204.766 312.368 205.386 312.912 206.452 312.924C207.028 312.93 207.001 312.736 206.322 311.987C205.852 311.467 205.466 310.766 205.466 310.427C205.466 310.089 204.884 308.891 204.173 307.766C203.462 306.641 202.88 305.584 202.88 305.418C202.88 305.251 202.298 304.353 201.587 303.421C200.876 302.49 200.294 301.476 200.294 301.168C200.294 300.86 200.003 300.301 199.647 299.925C198.842 299.076 197.674 296.13 197.328 294.077C197.017 292.234 195.845 290.642 191.246 285.812C186.221 280.536 180.408 272.339 178.768 268.215C177.984 266.245 176.478 263.471 175.42 262.051C174.362 260.63 173.262 258.602 172.974 257.544C172.298 255.049 169.131 249.872 167.675 248.878C164.888 246.978 162.999 244.699 161.959 241.985C161.343 240.378 160.639 239.064 160.393 239.064C160.149 239.064 159.948 238.715 159.948 238.289C159.948 237.807 159.46 237.514 158.655 237.514C157.944 237.514 157.362 237.219 157.362 236.859C157.362 236.498 156.721 235.813 155.939 235.336C154.714 234.589 154.414 234.569 153.779 235.197C153.139 235.828 153.174 236.188 154.037 237.882ZM213.096 326.048C210.811 327.781 212.496 331.297 218.508 337.34C220.557 339.399 221.865 340.31 222.775 340.31C224.797 340.31 224.448 338.966 221.098 333.833C220.734 333.276 220.3 332.413 220.132 331.916C219.965 331.419 219.666 331.012 219.467 331.012C219.268 331.012 218.585 330.086 217.948 328.956C216.927 327.14 215.052 325.299 214.274 325.346C214.124 325.355 213.593 325.671 213.096 326.048ZM233.598 357.978C234.104 359.834 236.463 362.251 237.123 361.591C237.516 361.199 237.431 360.793 236.83 360.194C236.365 359.729 235.984 359.177 235.984 358.966C235.984 358.367 233.842 356.223 233.542 356.523C233.395 356.671 233.419 357.325 233.598 357.978ZM306.684 445.157C307.137 446.355 307.11 446.807 306.558 447.264C306.005 447.722 305.786 447.57 305.529 446.546C305.35 445.832 305.406 444.884 305.655 444.439C306.023 443.783 306.216 443.918 306.684 445.157Z" fill="white"/>
</svg>
