<svg width="24" height="24" viewBox="0 0 24 24" fill="none" xmlns="http://www.w3.org/2000/svg">
<g opacity="0.9">
<rect width="24" height="24" rx="5" fill="#A40000"/>
<path fill-rule="evenodd" clip-rule="evenodd" d="M8.28564 6.03213C8.18271 6.07774 8.09038 6.17282 8.03893 6.28617C7.99833 6.37562 7.99362 6.44324 7.99315 6.94259L7.99264 7.49929H7.62683C7.19888 7.49929 7.06335 7.52691 6.78547 7.67069C6.43152 7.85385 6.13864 8.22397 6.0374 8.61608C6.00416 8.74483 6.00022 9.18305 6.00022 12.7499C6.00022 17.2114 5.98665 16.8578 6.17162 17.2152C6.30321 17.4695 6.53194 17.6978 6.78814 17.8306C7.14019 18.0131 6.72973 17.9998 12.0009 17.9998C17.2721 17.9998 16.8616 18.0131 17.2137 17.8306C17.4699 17.6978 17.6986 17.4695 17.8302 17.2152C18.0152 16.8578 18.0016 17.2114 18.0016 12.7499C18.0016 8.28836 18.0152 8.64203 17.8302 8.28454C17.6991 8.0312 17.4697 7.80179 17.2163 7.67069C16.9385 7.52691 16.8029 7.49929 16.375 7.49929H16.0092V6.94132C16.0092 6.39121 16.0083 6.38169 15.9498 6.26421C15.9127 6.18986 15.854 6.11984 15.7937 6.07795C15.6973 6.0111 15.6953 6.01082 15.2807 6.00353C14.8212 5.99544 14.7598 6.00963 14.6213 6.15554C14.5013 6.28184 14.4856 6.37576 14.4856 6.96312V7.49929H12.0009H9.51625V6.96875C9.51625 6.39067 9.50363 6.30924 9.39347 6.17556C9.26354 6.01795 9.19406 5.99901 8.74952 6.00004C8.47478 6.00067 8.33472 6.01038 8.28564 6.03213ZM16.9882 13.834L16.9819 16.6292L16.9168 16.7399C16.8747 16.8117 16.8128 16.8736 16.741 16.9157L16.6303 16.9808H12.0009H7.37147L7.26076 16.9157C7.18897 16.8736 7.12715 16.8117 7.08496 16.7399L7.01987 16.6292L7.01363 13.834L7.0074 11.0388H12.0009H16.9944L16.9882 13.834Z" fill="black"/>
<path fill-rule="evenodd" clip-rule="evenodd" d="M8.28564 6.03213C8.18271 6.07774 8.09038 6.17282 8.03893 6.28617C7.99833 6.37562 7.99362 6.44324 7.99315 6.94259L7.99264 7.49929H7.62683C7.19888 7.49929 7.06335 7.52691 6.78547 7.67069C6.43152 7.85385 6.13864 8.22397 6.0374 8.61608C6.00416 8.74483 6.00022 9.18305 6.00022 12.7499C6.00022 17.2114 5.98665 16.8578 6.17162 17.2152C6.30321 17.4695 6.53194 17.6978 6.78814 17.8306C7.14019 18.0131 6.72973 17.9998 12.0009 17.9998C17.2721 17.9998 16.8616 18.0131 17.2137 17.8306C17.4699 17.6978 17.6986 17.4695 17.8302 17.2152C18.0152 16.8578 18.0016 17.2114 18.0016 12.7499C18.0016 8.28836 18.0152 8.64203 17.8302 8.28454C17.6991 8.0312 17.4697 7.80179 17.2163 7.67069C16.9385 7.52691 16.8029 7.49929 16.375 7.49929H16.0092V6.94132C16.0092 6.39121 16.0083 6.38169 15.9498 6.26421C15.9127 6.18986 15.854 6.11984 15.7937 6.07795C15.6973 6.0111 15.6953 6.01082 15.2807 6.00353C14.8212 5.99544 14.7598 6.00963 14.6213 6.15554C14.5013 6.28184 14.4856 6.37576 14.4856 6.96312V7.49929H12.0009H9.51625V6.96875C9.51625 6.39067 9.50363 6.30924 9.39347 6.17556C9.26354 6.01795 9.19406 5.99901 8.74952 6.00004C8.47478 6.00067 8.33472 6.01038 8.28564 6.03213ZM16.9882 13.834L16.9819 16.6292L16.9168 16.7399C16.8747 16.8117 16.8128 16.8736 16.741 16.9157L16.6303 16.9808H12.0009H7.37147L7.26076 16.9157C7.18897 16.8736 7.12715 16.8117 7.08496 16.7399L7.01987 16.6292L7.01363 13.834L7.0074 11.0388H12.0009H16.9944L16.9882 13.834Z" fill="black"/>
<path fill-rule="evenodd" clip-rule="evenodd" d="M8.28564 6.03213C8.18271 6.07774 8.09038 6.17282 8.03893 6.28617C7.99833 6.37562 7.99362 6.44324 7.99315 6.94259L7.99264 7.49929H7.62683C7.19888 7.49929 7.06335 7.52691 6.78547 7.67069C6.43152 7.85385 6.13864 8.22397 6.0374 8.61608C6.00416 8.74483 6.00022 9.18305 6.00022 12.7499C6.00022 17.2114 5.98665 16.8578 6.17162 17.2152C6.30321 17.4695 6.53194 17.6978 6.78814 17.8306C7.14019 18.0131 6.72973 17.9998 12.0009 17.9998C17.2721 17.9998 16.8616 18.0131 17.2137 17.8306C17.4699 17.6978 17.6986 17.4695 17.8302 17.2152C18.0152 16.8578 18.0016 17.2114 18.0016 12.7499C18.0016 8.28836 18.0152 8.64203 17.8302 8.28454C17.6991 8.0312 17.4697 7.80179 17.2163 7.67069C16.9385 7.52691 16.8029 7.49929 16.375 7.49929H16.0092V6.94132C16.0092 6.39121 16.0083 6.38169 15.9498 6.26421C15.9127 6.18986 15.854 6.11984 15.7937 6.07795C15.6973 6.0111 15.6953 6.01082 15.2807 6.00353C14.8212 5.99544 14.7598 6.00963 14.6213 6.15554C14.5013 6.28184 14.4856 6.37576 14.4856 6.96312V7.49929H12.0009H9.51625V6.96875C9.51625 6.39067 9.50363 6.30924 9.39347 6.17556C9.26354 6.01795 9.19406 5.99901 8.74952 6.00004C8.47478 6.00067 8.33472 6.01038 8.28564 6.03213ZM16.9882 13.834L16.9819 16.6292L16.9168 16.7399C16.8747 16.8117 16.8128 16.8736 16.741 16.9157L16.6303 16.9808H12.0009H7.37147L7.26076 16.9157C7.18897 16.8736 7.12715 16.8117 7.08496 16.7399L7.01987 16.6292L7.01363 13.834L7.0074 11.0388H12.0009H16.9944L16.9882 13.834Z" fill="black"/>
<path fill-rule="evenodd" clip-rule="evenodd" d="M8.28564 6.03213C8.18271 6.07774 8.09038 6.17282 8.03893 6.28617C7.99833 6.37562 7.99362 6.44324 7.99315 6.94259L7.99264 7.49929H7.62683C7.19888 7.49929 7.06335 7.52691 6.78547 7.67069C6.43152 7.85385 6.13864 8.22397 6.0374 8.61608C6.00416 8.74483 6.00022 9.18305 6.00022 12.7499C6.00022 17.2114 5.98665 16.8578 6.17162 17.2152C6.30321 17.4695 6.53194 17.6978 6.78814 17.8306C7.14019 18.0131 6.72973 17.9998 12.0009 17.9998C17.2721 17.9998 16.8616 18.0131 17.2137 17.8306C17.4699 17.6978 17.6986 17.4695 17.8302 17.2152C18.0152 16.8578 18.0016 17.2114 18.0016 12.7499C18.0016 8.28836 18.0152 8.64203 17.8302 8.28454C17.6991 8.0312 17.4697 7.80179 17.2163 7.67069C16.9385 7.52691 16.8029 7.49929 16.375 7.49929H16.0092V6.94132C16.0092 6.39121 16.0083 6.38169 15.9498 6.26421C15.9127 6.18986 15.854 6.11984 15.7937 6.07795C15.6973 6.0111 15.6953 6.01082 15.2807 6.00353C14.8212 5.99544 14.7598 6.00963 14.6213 6.15554C14.5013 6.28184 14.4856 6.37576 14.4856 6.96312V7.49929H12.0009H9.51625V6.96875C9.51625 6.39067 9.50363 6.30924 9.39347 6.17556C9.26354 6.01795 9.19406 5.99901 8.74952 6.00004C8.47478 6.00067 8.33472 6.01038 8.28564 6.03213ZM16.9882 13.834L16.9819 16.6292L16.9168 16.7399C16.8747 16.8117 16.8128 16.8736 16.741 16.9157L16.6303 16.9808H12.0009H7.37147L7.26076 16.9157C7.18897 16.8736 7.12715 16.8117 7.08496 16.7399L7.01987 16.6292L7.01363 13.834L7.0074 11.0388H12.0009H16.9944L16.9882 13.834Z" fill="black"/>
<path fill-rule="evenodd" clip-rule="evenodd" d="M8.28564 6.03213C8.18271 6.07774 8.09038 6.17282 8.03893 6.28617C7.99833 6.37562 7.99362 6.44324 7.99315 6.94259L7.99264 7.49929H7.62683C7.19888 7.49929 7.06335 7.52691 6.78547 7.67069C6.43152 7.85385 6.13864 8.22397 6.0374 8.61608C6.00416 8.74483 6.00022 9.18305 6.00022 12.7499C6.00022 17.2114 5.98665 16.8578 6.17162 17.2152C6.30321 17.4695 6.53194 17.6978 6.78814 17.8306C7.14019 18.0131 6.72973 17.9998 12.0009 17.9998C17.2721 17.9998 16.8616 18.0131 17.2137 17.8306C17.4699 17.6978 17.6986 17.4695 17.8302 17.2152C18.0152 16.8578 18.0016 17.2114 18.0016 12.7499C18.0016 8.28836 18.0152 8.64203 17.8302 8.28454C17.6991 8.0312 17.4697 7.80179 17.2163 7.67069C16.9385 7.52691 16.8029 7.49929 16.375 7.49929H16.0092V6.94132C16.0092 6.39121 16.0083 6.38169 15.9498 6.26421C15.9127 6.18986 15.854 6.11984 15.7937 6.07795C15.6973 6.0111 15.6953 6.01082 15.2807 6.00353C14.8212 5.99544 14.7598 6.00963 14.6213 6.15554C14.5013 6.28184 14.4856 6.37576 14.4856 6.96312V7.49929H12.0009H9.51625V6.96875C9.51625 6.39067 9.50363 6.30924 9.39347 6.17556C9.26354 6.01795 9.19406 5.99901 8.74952 6.00004C8.47478 6.00067 8.33472 6.01038 8.28564 6.03213ZM16.9882 13.834L16.9819 16.6292L16.9168 16.7399C16.8747 16.8117 16.8128 16.8736 16.741 16.9157L16.6303 16.9808H12.0009H7.37147L7.26076 16.9157C7.18897 16.8736 7.12715 16.8117 7.08496 16.7399L7.01987 16.6292L7.01363 13.834L7.0074 11.0388H12.0009H16.9944L16.9882 13.834Z" fill="black"/>
<path fill-rule="evenodd" clip-rule="evenodd" d="M8.28564 6.03213C8.18271 6.07774 8.09038 6.17282 8.03893 6.28617C7.99833 6.37562 7.99362 6.44324 7.99315 6.94259L7.99264 7.49929H7.62683C7.19888 7.49929 7.06335 7.52691 6.78547 7.67069C6.43152 7.85385 6.13864 8.22397 6.0374 8.61608C6.00416 8.74483 6.00022 9.18305 6.00022 12.7499C6.00022 17.2114 5.98665 16.8578 6.17162 17.2152C6.30321 17.4695 6.53194 17.6978 6.78814 17.8306C7.14019 18.0131 6.72973 17.9998 12.0009 17.9998C17.2721 17.9998 16.8616 18.0131 17.2137 17.8306C17.4699 17.6978 17.6986 17.4695 17.8302 17.2152C18.0152 16.8578 18.0016 17.2114 18.0016 12.7499C18.0016 8.28836 18.0152 8.64203 17.8302 8.28454C17.6991 8.0312 17.4697 7.80179 17.2163 7.67069C16.9385 7.52691 16.8029 7.49929 16.375 7.49929H16.0092V6.94132C16.0092 6.39121 16.0083 6.38169 15.9498 6.26421C15.9127 6.18986 15.854 6.11984 15.7937 6.07795C15.6973 6.0111 15.6953 6.01082 15.2807 6.00353C14.8212 5.99544 14.7598 6.00963 14.6213 6.15554C14.5013 6.28184 14.4856 6.37576 14.4856 6.96312V7.49929H12.0009H9.51625V6.96875C9.51625 6.39067 9.50363 6.30924 9.39347 6.17556C9.26354 6.01795 9.19406 5.99901 8.74952 6.00004C8.47478 6.00067 8.33472 6.01038 8.28564 6.03213ZM16.9882 13.834L16.9819 16.6292L16.9168 16.7399C16.8747 16.8117 16.8128 16.8736 16.741 16.9157L16.6303 16.9808H12.0009H7.37147L7.26076 16.9157C7.18897 16.8736 7.12715 16.8117 7.08496 16.7399L7.01987 16.6292L7.01363 13.834L7.0074 11.0388H12.0009H16.9944L16.9882 13.834Z" fill="black"/>
<path fill-rule="evenodd" clip-rule="evenodd" d="M8.28564 6.03213C8.18271 6.07774 8.09038 6.17282 8.03893 6.28617C7.99833 6.37562 7.99362 6.44324 7.99315 6.94259L7.99264 7.49929H7.62683C7.19888 7.49929 7.06335 7.52691 6.78547 7.67069C6.43152 7.85385 6.13864 8.22397 6.0374 8.61608C6.00416 8.74483 6.00022 9.18305 6.00022 12.7499C6.00022 17.2114 5.98665 16.8578 6.17162 17.2152C6.30321 17.4695 6.53194 17.6978 6.78814 17.8306C7.14019 18.0131 6.72973 17.9998 12.0009 17.9998C17.2721 17.9998 16.8616 18.0131 17.2137 17.8306C17.4699 17.6978 17.6986 17.4695 17.8302 17.2152C18.0152 16.8578 18.0016 17.2114 18.0016 12.7499C18.0016 8.28836 18.0152 8.64203 17.8302 8.28454C17.6991 8.0312 17.4697 7.80179 17.2163 7.67069C16.9385 7.52691 16.8029 7.49929 16.375 7.49929H16.0092V6.94132C16.0092 6.39121 16.0083 6.38169 15.9498 6.26421C15.9127 6.18986 15.854 6.11984 15.7937 6.07795C15.6973 6.0111 15.6953 6.01082 15.2807 6.00353C14.8212 5.99544 14.7598 6.00963 14.6213 6.15554C14.5013 6.28184 14.4856 6.37576 14.4856 6.96312V7.49929H12.0009H9.51625V6.96875C9.51625 6.39067 9.50363 6.30924 9.39347 6.17556C9.26354 6.01795 9.19406 5.99901 8.74952 6.00004C8.47478 6.00067 8.33472 6.01038 8.28564 6.03213ZM16.9882 13.834L16.9819 16.6292L16.9168 16.7399C16.8747 16.8117 16.8128 16.8736 16.741 16.9157L16.6303 16.9808H12.0009H7.37147L7.26076 16.9157C7.18897 16.8736 7.12715 16.8117 7.08496 16.7399L7.01987 16.6292L7.01363 13.834L7.0074 11.0388H12.0009H16.9944L16.9882 13.834Z" fill="black"/>
<path fill-rule="evenodd" clip-rule="evenodd" d="M8.28564 6.03213C8.18271 6.07774 8.09038 6.17282 8.03893 6.28617C7.99833 6.37562 7.99362 6.44324 7.99315 6.94259L7.99264 7.49929H7.62683C7.19888 7.49929 7.06335 7.52691 6.78547 7.67069C6.43152 7.85385 6.13864 8.22397 6.0374 8.61608C6.00416 8.74483 6.00022 9.18305 6.00022 12.7499C6.00022 17.2114 5.98665 16.8578 6.17162 17.2152C6.30321 17.4695 6.53194 17.6978 6.78814 17.8306C7.14019 18.0131 6.72973 17.9998 12.0009 17.9998C17.2721 17.9998 16.8616 18.0131 17.2137 17.8306C17.4699 17.6978 17.6986 17.4695 17.8302 17.2152C18.0152 16.8578 18.0016 17.2114 18.0016 12.7499C18.0016 8.28836 18.0152 8.64203 17.8302 8.28454C17.6991 8.0312 17.4697 7.80179 17.2163 7.67069C16.9385 7.52691 16.8029 7.49929 16.375 7.49929H16.0092V6.94132C16.0092 6.39121 16.0083 6.38169 15.9498 6.26421C15.9127 6.18986 15.854 6.11984 15.7937 6.07795C15.6973 6.0111 15.6953 6.01082 15.2807 6.00353C14.8212 5.99544 14.7598 6.00963 14.6213 6.15554C14.5013 6.28184 14.4856 6.37576 14.4856 6.96312V7.49929H12.0009H9.51625V6.96875C9.51625 6.39067 9.50363 6.30924 9.39347 6.17556C9.26354 6.01795 9.19406 5.99901 8.74952 6.00004C8.47478 6.00067 8.33472 6.01038 8.28564 6.03213ZM16.9882 13.834L16.9819 16.6292L16.9168 16.7399C16.8747 16.8117 16.8128 16.8736 16.741 16.9157L16.6303 16.9808H12.0009H7.37147L7.26076 16.9157C7.18897 16.8736 7.12715 16.8117 7.08496 16.7399L7.01987 16.6292L7.01363 13.834L7.0074 11.0388H12.0009H16.9944L16.9882 13.834Z" fill="black"/>
</g>
</svg>
