<svg width="24" height="24" viewBox="0 0 24 24" fill="none" xmlns="http://www.w3.org/2000/svg">
<g opacity="0.9">
<path fill-rule="evenodd" clip-rule="evenodd" d="M3.73173 0.0749914C2.73793 0.294712 1.95695 0.742869 1.24857 1.49999C0.816909 1.96135 0.597553 2.29976 0.33869 2.90349C-0.0169864 3.73311 0.000131982 3.27284 0.000131982 12.0012C0.000131982 20.7296 -0.0169864 20.2694 0.33869 21.099C0.597553 21.7027 0.816909 22.0411 1.24857 22.5025C1.86296 23.1591 2.5288 23.5758 3.42047 23.8615L3.78392 23.9779L11.8212 23.993C20.7374 24.0097 20.2644 24.0263 21.1016 23.6667C21.773 23.3784 22.076 23.1705 22.6246 22.6219C23.1734 22.0731 23.3815 21.7697 23.6691 21.099C24.0247 20.2694 24.0076 20.7296 24.0076 12.0012C24.0076 3.27284 24.0247 3.73311 23.6691 2.90349C23.3815 2.2328 23.1734 1.92936 22.6246 1.38053C22.0758 0.831697 21.7723 0.623615 21.1016 0.336047C20.271 -0.0200992 20.7387 -0.00298074 11.9669 0.00161199C5.59012 0.00495217 3.98381 0.0193045 3.73173 0.0749914ZM12.9168 4.51335C14.6226 4.81078 16.0967 5.94665 16.9113 7.59116C17.4256 8.62943 17.6614 9.82396 17.5361 10.7564C17.2948 12.5522 15.57 15.4987 12.8808 18.7092C11.9502 19.8202 12.0575 19.8202 11.1269 18.7092C8.43428 15.4946 6.70642 12.5399 6.47135 10.7482C6.30988 9.5174 6.74227 7.95994 7.57173 6.78467C8.80404 5.03864 10.8772 4.15767 12.9168 4.51335ZM11.3776 7.48329C10.1078 7.83719 9.35293 9.13991 9.68314 10.4076C9.92316 11.3291 10.668 12.0022 11.6304 12.1672C12.8284 12.3726 14.0146 11.598 14.3246 10.4076C14.6581 9.12728 13.8924 7.82419 12.6041 7.47953C12.2833 7.39373 11.6925 7.39555 11.3776 7.48329Z" fill="#A40000"/>
<path fill-rule="evenodd" clip-rule="evenodd" d="M3.73173 0.0749914C2.73793 0.294712 1.95695 0.742869 1.24857 1.49999C0.816909 1.96135 0.597553 2.29976 0.33869 2.90349C-0.0169864 3.73311 0.000131982 3.27284 0.000131982 12.0012C0.000131982 20.7296 -0.0169864 20.2694 0.33869 21.099C0.597553 21.7027 0.816909 22.0411 1.24857 22.5025C1.86296 23.1591 2.5288 23.5758 3.42047 23.8615L3.78392 23.9779L11.8212 23.993C20.7374 24.0097 20.2644 24.0263 21.1016 23.6667C21.773 23.3784 22.076 23.1705 22.6246 22.6219C23.1734 22.0731 23.3815 21.7697 23.6691 21.099C24.0247 20.2694 24.0076 20.7296 24.0076 12.0012C24.0076 3.27284 24.0247 3.73311 23.6691 2.90349C23.3815 2.2328 23.1734 1.92936 22.6246 1.38053C22.0758 0.831697 21.7723 0.623615 21.1016 0.336047C20.271 -0.0200992 20.7387 -0.00298074 11.9669 0.00161199C5.59012 0.00495217 3.98381 0.0193045 3.73173 0.0749914ZM12.9168 4.51335C14.6226 4.81078 16.0967 5.94665 16.9113 7.59116C17.4256 8.62943 17.6614 9.82396 17.5361 10.7564C17.2948 12.5522 15.57 15.4987 12.8808 18.7092C11.9502 19.8202 12.0575 19.8202 11.1269 18.7092C8.43428 15.4946 6.70642 12.5399 6.47135 10.7482C6.30988 9.5174 6.74227 7.95994 7.57173 6.78467C8.80404 5.03864 10.8772 4.15767 12.9168 4.51335ZM11.3776 7.48329C10.1078 7.83719 9.35293 9.13991 9.68314 10.4076C9.92316 11.3291 10.668 12.0022 11.6304 12.1672C12.8284 12.3726 14.0146 11.598 14.3246 10.4076C14.6581 9.12728 13.8924 7.82419 12.6041 7.47953C12.2833 7.39373 11.6925 7.39555 11.3776 7.48329Z" fill="#A40000"/>
<path fill-rule="evenodd" clip-rule="evenodd" d="M3.73173 0.0749914C2.73793 0.294712 1.95695 0.742869 1.24857 1.49999C0.816909 1.96135 0.597553 2.29976 0.33869 2.90349C-0.0169864 3.73311 0.000131982 3.27284 0.000131982 12.0012C0.000131982 20.7296 -0.0169864 20.2694 0.33869 21.099C0.597553 21.7027 0.816909 22.0411 1.24857 22.5025C1.86296 23.1591 2.5288 23.5758 3.42047 23.8615L3.78392 23.9779L11.8212 23.993C20.7374 24.0097 20.2644 24.0263 21.1016 23.6667C21.773 23.3784 22.076 23.1705 22.6246 22.6219C23.1734 22.0731 23.3815 21.7697 23.6691 21.099C24.0247 20.2694 24.0076 20.7296 24.0076 12.0012C24.0076 3.27284 24.0247 3.73311 23.6691 2.90349C23.3815 2.2328 23.1734 1.92936 22.6246 1.38053C22.0758 0.831697 21.7723 0.623615 21.1016 0.336047C20.271 -0.0200992 20.7387 -0.00298074 11.9669 0.00161199C5.59012 0.00495217 3.98381 0.0193045 3.73173 0.0749914ZM12.9168 4.51335C14.6226 4.81078 16.0967 5.94665 16.9113 7.59116C17.4256 8.62943 17.6614 9.82396 17.5361 10.7564C17.2948 12.5522 15.57 15.4987 12.8808 18.7092C11.9502 19.8202 12.0575 19.8202 11.1269 18.7092C8.43428 15.4946 6.70642 12.5399 6.47135 10.7482C6.30988 9.5174 6.74227 7.95994 7.57173 6.78467C8.80404 5.03864 10.8772 4.15767 12.9168 4.51335ZM11.3776 7.48329C10.1078 7.83719 9.35293 9.13991 9.68314 10.4076C9.92316 11.3291 10.668 12.0022 11.6304 12.1672C12.8284 12.3726 14.0146 11.598 14.3246 10.4076C14.6581 9.12728 13.8924 7.82419 12.6041 7.47953C12.2833 7.39373 11.6925 7.39555 11.3776 7.48329Z" fill="#A40000"/>
<path fill-rule="evenodd" clip-rule="evenodd" d="M3.73173 0.0749914C2.73793 0.294712 1.95695 0.742869 1.24857 1.49999C0.816909 1.96135 0.597553 2.29976 0.33869 2.90349C-0.0169864 3.73311 0.000131982 3.27284 0.000131982 12.0012C0.000131982 20.7296 -0.0169864 20.2694 0.33869 21.099C0.597553 21.7027 0.816909 22.0411 1.24857 22.5025C1.86296 23.1591 2.5288 23.5758 3.42047 23.8615L3.78392 23.9779L11.8212 23.993C20.7374 24.0097 20.2644 24.0263 21.1016 23.6667C21.773 23.3784 22.076 23.1705 22.6246 22.6219C23.1734 22.0731 23.3815 21.7697 23.6691 21.099C24.0247 20.2694 24.0076 20.7296 24.0076 12.0012C24.0076 3.27284 24.0247 3.73311 23.6691 2.90349C23.3815 2.2328 23.1734 1.92936 22.6246 1.38053C22.0758 0.831697 21.7723 0.623615 21.1016 0.336047C20.271 -0.0200992 20.7387 -0.00298074 11.9669 0.00161199C5.59012 0.00495217 3.98381 0.0193045 3.73173 0.0749914ZM12.9168 4.51335C14.6226 4.81078 16.0967 5.94665 16.9113 7.59116C17.4256 8.62943 17.6614 9.82396 17.5361 10.7564C17.2948 12.5522 15.57 15.4987 12.8808 18.7092C11.9502 19.8202 12.0575 19.8202 11.1269 18.7092C8.43428 15.4946 6.70642 12.5399 6.47135 10.7482C6.30988 9.5174 6.74227 7.95994 7.57173 6.78467C8.80404 5.03864 10.8772 4.15767 12.9168 4.51335ZM11.3776 7.48329C10.1078 7.83719 9.35293 9.13991 9.68314 10.4076C9.92316 11.3291 10.668 12.0022 11.6304 12.1672C12.8284 12.3726 14.0146 11.598 14.3246 10.4076C14.6581 9.12728 13.8924 7.82419 12.6041 7.47953C12.2833 7.39373 11.6925 7.39555 11.3776 7.48329Z" fill="#A40000"/>
<path fill-rule="evenodd" clip-rule="evenodd" d="M3.73173 0.0749914C2.73793 0.294712 1.95695 0.742869 1.24857 1.49999C0.816909 1.96135 0.597553 2.29976 0.33869 2.90349C-0.0169864 3.73311 0.000131982 3.27284 0.000131982 12.0012C0.000131982 20.7296 -0.0169864 20.2694 0.33869 21.099C0.597553 21.7027 0.816909 22.0411 1.24857 22.5025C1.86296 23.1591 2.5288 23.5758 3.42047 23.8615L3.78392 23.9779L11.8212 23.993C20.7374 24.0097 20.2644 24.0263 21.1016 23.6667C21.773 23.3784 22.076 23.1705 22.6246 22.6219C23.1734 22.0731 23.3815 21.7697 23.6691 21.099C24.0247 20.2694 24.0076 20.7296 24.0076 12.0012C24.0076 3.27284 24.0247 3.73311 23.6691 2.90349C23.3815 2.2328 23.1734 1.92936 22.6246 1.38053C22.0758 0.831697 21.7723 0.623615 21.1016 0.336047C20.271 -0.0200992 20.7387 -0.00298074 11.9669 0.00161199C5.59012 0.00495217 3.98381 0.0193045 3.73173 0.0749914ZM12.9168 4.51335C14.6226 4.81078 16.0967 5.94665 16.9113 7.59116C17.4256 8.62943 17.6614 9.82396 17.5361 10.7564C17.2948 12.5522 15.57 15.4987 12.8808 18.7092C11.9502 19.8202 12.0575 19.8202 11.1269 18.7092C8.43428 15.4946 6.70642 12.5399 6.47135 10.7482C6.30988 9.5174 6.74227 7.95994 7.57173 6.78467C8.80404 5.03864 10.8772 4.15767 12.9168 4.51335ZM11.3776 7.48329C10.1078 7.83719 9.35293 9.13991 9.68314 10.4076C9.92316 11.3291 10.668 12.0022 11.6304 12.1672C12.8284 12.3726 14.0146 11.598 14.3246 10.4076C14.6581 9.12728 13.8924 7.82419 12.6041 7.47953C12.2833 7.39373 11.6925 7.39555 11.3776 7.48329Z" fill="#A40000"/>
<path fill-rule="evenodd" clip-rule="evenodd" d="M3.73173 0.0749914C2.73793 0.294712 1.95695 0.742869 1.24857 1.49999C0.816909 1.96135 0.597553 2.29976 0.33869 2.90349C-0.0169864 3.73311 0.000131982 3.27284 0.000131982 12.0012C0.000131982 20.7296 -0.0169864 20.2694 0.33869 21.099C0.597553 21.7027 0.816909 22.0411 1.24857 22.5025C1.86296 23.1591 2.5288 23.5758 3.42047 23.8615L3.78392 23.9779L11.8212 23.993C20.7374 24.0097 20.2644 24.0263 21.1016 23.6667C21.773 23.3784 22.076 23.1705 22.6246 22.6219C23.1734 22.0731 23.3815 21.7697 23.6691 21.099C24.0247 20.2694 24.0076 20.7296 24.0076 12.0012C24.0076 3.27284 24.0247 3.73311 23.6691 2.90349C23.3815 2.2328 23.1734 1.92936 22.6246 1.38053C22.0758 0.831697 21.7723 0.623615 21.1016 0.336047C20.271 -0.0200992 20.7387 -0.00298074 11.9669 0.00161199C5.59012 0.00495217 3.98381 0.0193045 3.73173 0.0749914ZM12.9168 4.51335C14.6226 4.81078 16.0967 5.94665 16.9113 7.59116C17.4256 8.62943 17.6614 9.82396 17.5361 10.7564C17.2948 12.5522 15.57 15.4987 12.8808 18.7092C11.9502 19.8202 12.0575 19.8202 11.1269 18.7092C8.43428 15.4946 6.70642 12.5399 6.47135 10.7482C6.30988 9.5174 6.74227 7.95994 7.57173 6.78467C8.80404 5.03864 10.8772 4.15767 12.9168 4.51335ZM11.3776 7.48329C10.1078 7.83719 9.35293 9.13991 9.68314 10.4076C9.92316 11.3291 10.668 12.0022 11.6304 12.1672C12.8284 12.3726 14.0146 11.598 14.3246 10.4076C14.6581 9.12728 13.8924 7.82419 12.6041 7.47953C12.2833 7.39373 11.6925 7.39555 11.3776 7.48329Z" fill="#A40000"/>
<path fill-rule="evenodd" clip-rule="evenodd" d="M3.73173 0.0749914C2.73793 0.294712 1.95695 0.742869 1.24857 1.49999C0.816909 1.96135 0.597553 2.29976 0.33869 2.90349C-0.0169864 3.73311 0.000131982 3.27284 0.000131982 12.0012C0.000131982 20.7296 -0.0169864 20.2694 0.33869 21.099C0.597553 21.7027 0.816909 22.0411 1.24857 22.5025C1.86296 23.1591 2.5288 23.5758 3.42047 23.8615L3.78392 23.9779L11.8212 23.993C20.7374 24.0097 20.2644 24.0263 21.1016 23.6667C21.773 23.3784 22.076 23.1705 22.6246 22.6219C23.1734 22.0731 23.3815 21.7697 23.6691 21.099C24.0247 20.2694 24.0076 20.7296 24.0076 12.0012C24.0076 3.27284 24.0247 3.73311 23.6691 2.90349C23.3815 2.2328 23.1734 1.92936 22.6246 1.38053C22.0758 0.831697 21.7723 0.623615 21.1016 0.336047C20.271 -0.0200992 20.7387 -0.00298074 11.9669 0.00161199C5.59012 0.00495217 3.98381 0.0193045 3.73173 0.0749914ZM12.9168 4.51335C14.6226 4.81078 16.0967 5.94665 16.9113 7.59116C17.4256 8.62943 17.6614 9.82396 17.5361 10.7564C17.2948 12.5522 15.57 15.4987 12.8808 18.7092C11.9502 19.8202 12.0575 19.8202 11.1269 18.7092C8.43428 15.4946 6.70642 12.5399 6.47135 10.7482C6.30988 9.5174 6.74227 7.95994 7.57173 6.78467C8.80404 5.03864 10.8772 4.15767 12.9168 4.51335ZM11.3776 7.48329C10.1078 7.83719 9.35293 9.13991 9.68314 10.4076C9.92316 11.3291 10.668 12.0022 11.6304 12.1672C12.8284 12.3726 14.0146 11.598 14.3246 10.4076C14.6581 9.12728 13.8924 7.82419 12.6041 7.47953C12.2833 7.39373 11.6925 7.39555 11.3776 7.48329Z" fill="#A40000"/>
<path fill-rule="evenodd" clip-rule="evenodd" d="M3.73173 0.0749914C2.73793 0.294712 1.95695 0.742869 1.24857 1.49999C0.816909 1.96135 0.597553 2.29976 0.33869 2.90349C-0.0169864 3.73311 0.000131982 3.27284 0.000131982 12.0012C0.000131982 20.7296 -0.0169864 20.2694 0.33869 21.099C0.597553 21.7027 0.816909 22.0411 1.24857 22.5025C1.86296 23.1591 2.5288 23.5758 3.42047 23.8615L3.78392 23.9779L11.8212 23.993C20.7374 24.0097 20.2644 24.0263 21.1016 23.6667C21.773 23.3784 22.076 23.1705 22.6246 22.6219C23.1734 22.0731 23.3815 21.7697 23.6691 21.099C24.0247 20.2694 24.0076 20.7296 24.0076 12.0012C24.0076 3.27284 24.0247 3.73311 23.6691 2.90349C23.3815 2.2328 23.1734 1.92936 22.6246 1.38053C22.0758 0.831697 21.7723 0.623615 21.1016 0.336047C20.271 -0.0200992 20.7387 -0.00298074 11.9669 0.00161199C5.59012 0.00495217 3.98381 0.0193045 3.73173 0.0749914ZM12.9168 4.51335C14.6226 4.81078 16.0967 5.94665 16.9113 7.59116C17.4256 8.62943 17.6614 9.82396 17.5361 10.7564C17.2948 12.5522 15.57 15.4987 12.8808 18.7092C11.9502 19.8202 12.0575 19.8202 11.1269 18.7092C8.43428 15.4946 6.70642 12.5399 6.47135 10.7482C6.30988 9.5174 6.74227 7.95994 7.57173 6.78467C8.80404 5.03864 10.8772 4.15767 12.9168 4.51335ZM11.3776 7.48329C10.1078 7.83719 9.35293 9.13991 9.68314 10.4076C9.92316 11.3291 10.668 12.0022 11.6304 12.1672C12.8284 12.3726 14.0146 11.598 14.3246 10.4076C14.6581 9.12728 13.8924 7.82419 12.6041 7.47953C12.2833 7.39373 11.6925 7.39555 11.3776 7.48329Z" fill="#A40000"/>
</g>
</svg>
