<svg width="137" height="137" viewBox="0 0 137 137" fill="none" xmlns="http://www.w3.org/2000/svg">
<path fill-rule="evenodd" clip-rule="evenodd" d="M64.1208 0.158177L61.7113 0.316535L59.586 0.602813L57.4608 0.88909L55.5562 1.25781L53.6515 1.62653L51.2934 2.2413L48.9354 2.85607L46.94 3.51288L44.9447 4.16968L42.4959 5.16966L40.0471 6.16964L37.5984 7.41259L35.1496 8.65554L33.1543 9.85609L31.1589 11.0566L29.234 12.4065L27.3091 13.7563L25.4248 15.2653L23.5405 16.774L20.9881 19.2313L18.4359 21.6886L16.5611 23.8672L14.6862 26.046L13.0361 28.3108L11.3861 30.5759L9.99777 32.8947L8.6094 35.2137L7.21867 38.0004L5.82812 40.7871L4.9529 42.9831L4.07769 45.1791L3.2636 47.7157L2.4497 50.2524L1.80376 53.0608L1.15782 55.8692L0.79486 58.4058L0.431712 60.9425L0.215857 63.5391L0 66.1357L0.107928 70.4242L0.216038 74.7128L0.404686 76.1623L0.593333 77.6118L0.788692 78.7895L0.984233 79.9672L1.34974 81.8697L1.71524 83.7722L2.16128 85.4935L2.60733 87.2147L3.34487 89.4796L4.08259 91.7444L4.98447 94.0093L5.88635 96.2742L7.37866 99.2638L8.87115 102.253L10.3404 104.609L11.8099 106.964L13.1513 108.776L14.4927 110.588L15.8562 112.219L17.2197 113.849L19.075 115.788L20.9303 117.726L22.9609 119.521L24.9916 121.315L26.8048 122.727L28.6182 124.138L30.4327 125.352L32.2473 126.565L34.2426 127.713L36.2379 128.861L38.596 129.997L40.9541 131.134L42.9494 131.938L44.9447 132.741L47.5649 133.584L50.1851 134.426L51.9183 134.858L53.6515 135.29L55.6468 135.661L57.6422 136.033L59.7282 136.301L61.8142 136.568L65.2135 136.784L68.6127 137L72.3784 136.781L76.1441 136.563L77.8674 136.299L79.5906 136.034L81.9407 135.568L84.2908 135.102L86.8386 134.404L89.3865 133.706L91.1093 133.082L92.8322 132.457L94.245 131.895L95.6577 131.332L97.6585 130.419L99.6592 129.506L101.498 128.489L103.337 127.473L105.34 126.212L107.344 124.951L109.702 123.176L112.06 121.402L114.055 119.605L116.05 117.807L118.205 115.558L120.359 113.309L122.026 111.224L123.693 109.139L124.778 107.598L125.863 106.058L126.868 104.428L127.873 102.797L128.979 100.713L130.086 98.6296L130.981 96.6365L131.877 94.6435L132.691 92.4692L133.505 90.2949L134.244 87.7583L134.982 85.2217L135.436 83.0474L135.889 80.8732L136.186 79.1559L136.482 77.4386L136.738 74.8073L136.994 72.1761L136.997 68.643L137 65.1098L136.73 62.3014L136.46 59.493L136.083 57.2281L135.705 54.9632L135.168 52.6984L134.631 50.4335L133.984 48.2593L133.337 46.085L132.519 43.9108L131.702 41.7365L130.283 38.8375L128.864 35.9385L127.583 33.793L126.302 31.6478L124.914 29.6257L123.525 27.6038L121.8 25.4296L120.075 23.2553L116.793 19.9863L113.511 16.7173L111.516 15.1363L109.52 13.5552L107.434 12.1304L105.348 10.7055L103.625 9.67635L101.902 8.6472L98.6367 7.04804L95.3717 5.44887L93.8298 4.86128L92.288 4.27368L90.202 3.56451L88.116 2.85516L85.3044 2.14744L82.4928 1.43954L80.4068 1.06973L78.3208 0.69993L76.0534 0.437751L73.786 0.17539L70.1582 0.0876946L66.5304 0L64.1208 0.158177ZM75.6906 0.8784L77.4139 1.08459L80.0441 1.53013L82.6742 1.97568L85.2137 2.61092L87.7532 3.24617L90.202 4.07474L92.6508 4.90349L94.9771 5.88572L97.3037 6.86812L99.0766 7.75703L100.85 8.64575L102.645 9.6807L104.441 10.7158L105.711 11.5404L106.981 12.3652L108.704 13.6255L110.427 14.8859L111.874 16.081L113.322 17.2761L114.867 18.6859L116.413 20.0959L118.207 22.0379L120.001 23.9801L121.413 25.7381L122.824 27.4962L124.089 29.2777L125.353 31.0593L126.574 33.0458L127.795 35.0326L129.016 37.388L130.237 39.7434L131.16 41.9177L132.083 44.092L132.885 46.4474L133.688 48.8029L134.337 51.3395L134.985 53.8761L135.354 55.8692L135.722 57.8623L136.001 60.0365L136.28 62.2108L136.438 65.4722L136.597 68.7335L136.443 71.7842L136.289 74.8347L136 77.0387L135.711 79.2425L135.344 81.1449L134.977 83.0474L134.529 84.8593L134.082 86.6712L133.345 89.0266L132.609 91.3821L131.735 93.5697L130.862 95.7574L129.882 97.8277L128.903 99.8979L127.668 102.072L126.433 104.246L124.82 106.619L123.207 108.991L121.624 110.967L120.041 112.943L117.411 115.639L114.781 118.335L112.96 119.907L111.139 121.479L109.264 122.897L107.389 124.316L105.189 125.705L102.99 127.094L101.72 127.801L100.451 128.509L98.3646 129.539L96.2786 130.57L93.7391 131.569L91.1997 132.569L88.8416 133.306L86.4835 134.044L84.2161 134.577L81.9487 135.111L80.4068 135.389L78.865 135.668L76.5976 135.986L74.3302 136.304L68.7071 136.308L63.0839 136.313L60.6351 135.987L58.1863 135.662L55.7802 135.213L53.374 134.765L51.6082 134.311L49.8423 133.857L47.5749 133.121L45.3075 132.386L43.2215 131.57L41.1355 130.754L38.1425 129.258L35.1496 127.762L33.4263 126.719L31.7031 125.676L29.9799 124.49L28.2567 123.305L26.7314 122.118L25.2059 120.931L23.3756 119.307L21.5452 117.683L19.7665 115.857L17.9879 114.031L16.5295 112.309L15.0711 110.588L13.8028 108.908L12.5344 107.228L10.908 104.65L9.28146 102.072L7.67179 98.8108L6.06212 95.5494L5.23406 93.4297L4.40601 91.31L3.94146 89.8965L3.47692 88.4831L2.86672 86.3088L2.25652 84.1345L1.89028 82.3227L1.52424 80.5108L1.15764 78.0647L0.790869 75.6187L0.58263 72.4479L0.374393 69.2771L0.491572 66.5593L0.60857 63.8415L0.788148 61.939L0.967907 60.0365L1.4105 57.3187L1.85328 54.6009L2.57159 51.7925L3.2899 48.984L4.0006 46.9004L4.71129 44.8167L5.3906 43.0954L6.06992 41.3741L7.48822 38.4751L8.90652 35.5761L10.3526 33.19L11.7985 30.8042L13.3162 28.6779L14.8337 26.5517L16.55 24.5412L18.2662 22.5306L20.455 20.3563L22.6439 18.1821L24.7248 16.435L26.8055 14.688L28.8892 13.1996L30.9728 11.7111L32.6591 10.7198L34.3455 9.72854L37.3776 8.22123L40.4099 6.71393L42.3145 5.89912L44.2192 5.08414L46.779 4.15809L49.3386 3.23185L51.8579 2.59498L54.3771 1.95828L56.9166 1.52271L59.4561 1.08713L61.5421 0.891083L63.6281 0.695219L64.3537 0.624012L65.0792 0.552986L69.5233 0.612597L73.9674 0.672027L75.6906 0.8784ZM96.9401 10.0652L96.7702 10.3687L97.2046 10.71L97.6391 11.0514V11.2453V11.439L95.7096 14.4481L93.7803 17.4573L93.5396 17.7159L93.2991 17.9746L92.8095 17.7517L92.3199 17.5289L92.0645 17.7842L91.8091 18.0393L93.8411 19.3509L95.873 20.6625L96.0278 20.4188L96.1823 20.1751L96.1852 20.0456L96.1879 19.916L95.8251 19.7222L95.4624 19.5283V19.2076V18.8871L96.2329 17.6738L97.0033 16.4608H97.1943H97.3851L97.5904 16.6659L97.796 16.8712L97.692 19.0679L97.5881 21.2646L98.0691 21.8355L98.5502 22.4066L99.1805 22.7783L99.811 23.1497L99.991 22.8139L100.171 22.478L99.8972 22.2512L99.6237 22.0243L99.6743 19.8314L99.7251 17.6385L100.697 17.541L101.668 17.4435L102.375 16.6874L103.081 15.9311V15.151V14.3706L102.626 13.702L102.171 13.0334L100.404 11.8742L98.6367 10.7151L97.8734 10.2384L97.1101 9.76187L96.9401 10.0652ZM35.5555 11.8695L34.8775 12.3512V12.642V12.9327L36.0565 16.9492L37.2356 20.9656V21.511V22.0562L37.0542 22.1682L36.8728 22.2802L36.8755 22.4054L36.8784 22.5306L37.0426 22.7898L37.2069 23.0491L38.627 21.9915L40.0471 20.9341L40.1184 20.8761L40.1895 20.818L39.9566 20.5379L39.7239 20.2576L39.2813 20.5471L38.8387 20.8368L38.6033 20.7466L38.3676 20.6562L38.0736 19.7944L37.7798 18.9329V18.7283V18.5238L38.9227 17.6854L40.0657 16.8472L40.2681 16.7898L40.4705 16.7325L41.2128 17.1841L41.9552 17.6356L42.0606 17.9672L42.1658 18.2986L41.8611 18.635L41.5563 18.9713L41.7234 19.2694L41.8903 19.5674L43.7492 18.1857L45.6079 16.8038L45.4011 16.5548L45.1943 16.306L44.5926 16.4035L43.991 16.501L40.1743 13.9442L36.3576 11.3875H36.2956H36.2336L35.5555 11.8695ZM100.479 12.9368L101.086 13.399V13.9968V14.5945L100.535 15.353L99.9854 16.1116L99.546 16.3115L99.1065 16.5115L98.5602 16.2854L98.0138 16.0594L97.8047 15.8076L97.5955 15.5557L98.5669 14.0153L99.5382 12.4746H99.7053H99.8722L100.479 12.9368ZM38.8331 15.5068L39.6145 16.0612L38.5146 16.9067L37.4144 17.7523L37.3221 17.5117L37.2296 17.271L36.6199 15.3312L36.0103 13.3914L37.0311 14.172L38.0518 14.9524L38.8331 15.5068ZM64.6257 16.2711L62.9025 16.4178L60.7258 16.7327L58.5491 17.0476L56.1003 17.6488L53.6515 18.25L51.4001 19.0043L49.1485 19.7587L47.0061 20.7151L44.8635 21.6716L42.9995 22.7248L41.1355 23.778L39.4228 24.9369L37.7101 26.0956L35.6136 27.7845L33.517 29.4732L31.3081 31.7094L29.0992 33.9454L28.2095 35.0326L27.32 36.1197L26.1319 37.7504L24.9436 39.3811L23.9575 41.0118L22.9713 42.6425L22.1334 44.1826L21.2958 45.7227L20.4057 47.8063L19.5158 49.89L18.856 51.8831L18.1963 53.8761L17.6478 56.0504L17.0994 58.2246L16.6984 60.7613L16.2973 63.2979L16.2923 68.4618L16.2872 73.6256L16.6139 75.7093L16.9405 77.793L17.3844 79.7685L17.8281 81.7439L18.3806 83.664L18.933 85.584L19.9384 88.1207L20.9439 90.6573L21.9981 92.6777L23.0524 94.6982L24.3972 96.7545L25.742 98.8108L27.554 101.076L29.3659 103.34L31.3904 105.368L33.4147 107.395L35.4351 109.043L37.4552 110.691L39.4767 112.014L41.4983 113.337L43.1789 114.288L44.8595 115.239L47.0788 116.235L49.2981 117.231L51.7141 118.038L54.1302 118.846L56.0261 119.293L57.922 119.741L60.1403 120.096L62.3583 120.45L64.535 120.636L66.7118 120.821L68.6519 120.823L70.5919 120.825L72.9146 120.63L75.2372 120.435L77.3232 120.082L79.4092 119.73L81.4952 119.2L83.5812 118.671L85.6672 117.95L87.7532 117.229L89.295 116.57L90.8369 115.912L92.9229 114.823L95.0089 113.734L97.5484 112.036L100.088 110.337L101.63 109.05L103.172 107.762L105.168 105.815L107.164 103.868L108.543 102.246L109.921 100.623L111.097 98.992L112.273 97.3613L113.312 95.64L114.351 93.9187L115.407 91.7444L116.463 89.5702L117.292 87.4865L118.12 85.4029L118.772 83.138L119.425 80.8732L119.767 79.3331L120.109 77.793L120.436 75.7093L120.762 73.6256L120.765 68.4618L120.767 63.2979L120.53 61.6672L120.293 60.0365L119.846 57.8662L119.399 55.696L118.754 53.5177L118.109 51.3395L117.33 49.3442L116.55 47.3488L115.329 44.9151L114.108 42.4812L113.017 40.7499L111.927 39.0187L110.368 36.935L108.81 34.8514L105.628 31.6746L102.446 28.498L100.36 26.9302L98.2739 25.3625L96.3693 24.166L94.4647 22.9694L91.7438 21.6326L89.0229 20.2958L86.5154 19.3645L84.0078 18.433L81.255 17.7361L78.5022 17.0393L75.8599 16.6612L73.2176 16.2828L69.7833 16.2035L66.349 16.1241L64.6257 16.2711ZM74.4209 16.9255L76.8697 17.2087L79.0393 17.6649L81.209 18.121L83.2957 18.7528L85.3826 19.3846L87.6324 20.2829L89.8824 21.1811L92.4036 22.459L94.9247 23.7367L97.1888 25.2471L99.453 26.7573L101.675 28.7451L103.897 30.7328L105.898 32.7922L107.899 34.8514L109.448 36.7538L110.997 38.6563L111.815 39.834L112.633 41.0118L113.471 42.4622L114.31 43.9128L115.387 46.1765L116.465 48.4405L117.203 50.4335L117.942 52.4266L118.412 54.0573L118.882 55.688L119.32 57.6983L119.758 59.7087L120.024 61.9562L120.29 64.2038L120.406 66.5593L120.523 68.9147L120.321 71.6326L120.12 74.3504L119.758 76.6152L119.396 78.8801L119.109 80.0578L118.821 81.2355L118.404 82.685L117.987 84.1345L117.786 84.6781L117.585 85.2217L117.422 85.584L117.259 85.9464L117.076 86.49L116.892 87.0336L116.452 88.2127L116.011 89.3921L115.004 91.4741L113.998 93.5563L112.842 95.4695L111.687 97.3825L110.103 99.4897L108.518 101.597L106.826 103.465L105.133 105.334L103.189 107.055L101.244 108.776L99.2148 110.291L97.1856 111.805L95.0564 113.065L92.9272 114.326L90.8844 115.295L88.8416 116.264L86.8916 116.995L84.9416 117.726L83.072 118.262L81.2024 118.797L79.4895 119.164L77.7767 119.53L75.6906 119.856L73.6046 120.182L68.7978 120.186L63.9909 120.191L62.2677 119.949L60.5444 119.706L58.7089 119.358L56.8734 119.009L54.5369 118.371L52.2004 117.733L50.5294 117.109L48.8584 116.485L46.9016 115.61L44.9447 114.735L42.9494 113.59L40.9541 112.446L39.2309 111.263L37.5077 110.08L35.6937 108.587L33.8798 107.094L32.229 105.489L30.5783 103.884L29.3089 102.435L28.0395 100.985L26.9458 99.5355L25.852 98.086L24.6584 96.2457L23.4648 94.4054L22.2958 92.0784L21.1265 89.7514L20.4938 88.2113L19.8611 86.6712L19.1318 84.4063L18.4026 82.1415L17.9391 80.0578L17.4758 77.9741L17.1989 76.1623L16.922 74.3504L16.7051 71.2265L16.4882 68.1027L16.7049 65.1239L16.9217 62.145L17.2846 60.0037L17.6476 57.8623L18.1156 55.9808L18.5836 54.0992L19.3663 51.8135L20.149 49.5276L20.6346 48.3638L21.12 47.2002L22.1276 45.1936L23.1351 43.1869L24.4331 41.1016L25.7313 39.0163L27.0653 37.2358L28.3991 35.4554L30.1056 33.5676L31.812 31.68L33.5715 30.1149L35.331 28.5498L36.7821 27.4243L38.2332 26.2989L39.1558 25.6573L40.0783 25.0157L41.6953 24.0205L43.3122 23.0252L45.3982 21.9836L47.4842 20.9417L49.4795 20.172L51.4748 19.4022L53.2888 18.8539L55.1027 18.3056L56.2817 18.026L57.4608 17.7465L59.0933 17.4455L60.7258 17.1446L62.6304 16.913L64.535 16.6813L68.2536 16.6619L71.9721 16.6423L74.4209 16.9255ZM66.5955 25.7604L65.5937 26.3629L64.7083 27.0383L63.8229 27.7136L63.272 28.4913L62.7211 29.2691L62.141 30.5201L61.5609 31.7712L61.1089 32.9489L60.6569 34.1266L59.6347 36.5726L58.6126 39.0187L57.6095 41.6459L56.6064 44.2731L55.265 47.89L53.9236 51.5069L53.9254 51.7856L53.9273 52.0642L54.3528 52.9771L54.7783 53.8899L55.6494 54.6558L56.5204 55.4217L57.6255 55.9469L58.7305 56.4724L59.2293 56.5818L59.7282 56.6914L59.7242 56.4615L59.7204 56.2316L58.741 55.5309L57.7615 54.8301L57.0055 54.1042L56.2493 53.3784L55.9033 52.812L55.5574 52.2454L55.5645 51.8831L55.5714 51.5207L55.8812 50.9664L56.191 50.4122L57.3559 48.7304L58.5206 47.0486L59.894 45.6768L61.2675 44.305L62.4478 43.5522L63.6281 42.7995L65.2606 42.1014L66.8931 41.4033L67.758 41.32L68.6229 41.2368L69.844 41.6463L71.0652 42.0558L72.607 42.8267L74.1488 43.5975L75.2762 44.4442L76.4035 45.2909L77.5015 46.4878L78.5996 47.6847L79.6065 49.1656L80.6134 50.6463L80.7812 51.3917L80.9488 52.1371L80.758 52.6384L80.5672 53.1398L79.9147 53.935L79.2623 54.7304L77.9299 55.7146L76.5976 56.6989V56.8851V57.0714L76.9604 56.9685L77.3232 56.8657L77.7313 56.7568L78.1394 56.6481L79.1371 56.1756L80.1347 55.7032L81.2509 54.5974L82.367 53.4918L82.5913 52.7437L82.8157 51.9958L82.353 50.5805L81.8903 49.1652L80.7662 46.538L79.6421 43.9108L78.9169 42.1895L78.1917 40.4682L77.5679 38.9281L76.9439 37.388L76.0369 34.8514L75.1301 32.3147L74.1385 30.2773L73.147 28.24L72.154 27.4616L71.1613 26.6834L69.8865 25.9206L68.6116 25.1578H68.1045H67.5973L66.5955 25.7604ZM124.893 39.8837L123.759 40.455V40.5628V40.6708L123.986 40.9685L124.213 41.2663L124.956 41.0638L125.699 40.8612L125.979 40.9683L126.259 41.0755L127.023 42.4591L127.788 43.8428L127.724 43.8979L127.659 43.9532L122.853 43.5332L118.046 43.1134L117.728 43.2072L117.411 43.3011V43.4899V43.6789L119.064 46.9656L120.717 50.2524L120.863 50.4094L121.008 50.5665L122.28 49.9811L123.551 49.3957L123.349 48.9512L123.146 48.507L122.773 48.6139L122.399 48.721L121.939 48.8222L121.478 48.9233L121.101 48.5912L120.724 48.2593L119.982 46.8775L119.24 45.496L119.314 45.4219L119.388 45.3478L124.159 45.7647L128.929 46.1816L129.35 46.0814L129.771 45.981L129.713 45.8276L129.655 45.6741L128.022 42.4846L126.39 39.2954L126.208 39.3039L126.027 39.3122L124.893 39.8837ZM9.3132 41.2384L8.48497 42.0993L7.53266 44.3724L6.58035 46.6456V46.8442V47.0428L6.85788 47.1491L7.13559 47.2557L7.34057 46.8062L7.54554 46.3568L8.01534 46.3691L8.48497 46.3815L11.75 47.7828L15.0151 49.1841L15.0274 49.8739L15.0399 50.5635L15.3093 50.714L15.5787 50.8648L16.6188 48.4071L17.6587 45.9495L17.8481 45.0678L18.0374 44.1862L17.8372 43.5801L17.6369 42.974L17.1054 42.4654L16.574 41.9567L15.657 41.8688L14.7403 41.7807L14.0238 42.2543L13.3073 42.728L13.1917 42.1119L13.076 41.4961L12.713 41.1069L12.3501 40.7177L11.9022 40.5477L11.4544 40.3776H10.7979H10.1414L9.3132 41.2384ZM11.4964 42.9653L12.1128 43.379L12.1679 43.8484L12.2233 44.3181L11.9866 44.8626L11.75 45.4068L10.2535 44.7772L8.75705 44.1476V43.8271V43.5067L9.13308 43.0293L9.50892 42.5519H10.1946H10.8801L11.4964 42.9653ZM15.6528 44.2746L16.5507 44.729L16.6683 45.1967L16.7856 45.6643L16.5486 46.382L16.3115 47.0997L16.2074 47.1633L16.1034 47.2269L14.3887 46.5135L12.674 45.8002L12.6075 45.7337L12.5409 45.6672L12.9151 44.9347L13.2893 44.2019L13.608 44.0166L13.9267 43.8312L14.3408 43.8256L14.755 43.8202L15.6528 44.2746ZM44.3775 49.0708L43.0846 49.4093L41.9287 49.9884L40.7727 50.5674L39.5489 51.5623L38.325 52.5574L35.1955 52.5873L32.0659 52.6172L30.5241 53.0289L28.9822 53.4405L27.7125 53.9124L26.4428 54.3842L24.1754 55.5133L21.908 56.6425L20.7743 57.4943L19.6406 58.346V59.09V59.8339L20.1095 61.3847L20.5784 62.9355L21.2053 64.6947L21.832 66.4538L22.3602 68.0952L22.8882 69.7364L24.5748 72.8503L26.2614 75.9642L26.6749 77.0358L27.0885 78.1071L26.973 78.4936L26.8572 78.8801L26.1661 80.2752L25.4752 81.6706L25.2485 82.6821L25.0219 83.6937L25.2334 84.841L25.4451 85.9883L25.4632 87.5074L25.4812 89.0266L25.6064 89.4796L25.7315 89.9326L26.2233 89.9898L26.7148 90.0473V88.2232V86.3994H27.3303H27.9458L28.0493 86.669L28.1529 86.9386L28.2592 87.892L28.3655 88.8454L28.4575 89.4455L28.5494 90.0456L28.9472 89.9891L29.345 89.9326L29.4357 88.2113L29.5264 86.49L30.0149 86.4336L30.5036 86.3773L30.6139 87.0678L30.7242 87.7583L30.9188 88.5249L31.1134 89.2915L31.3503 89.4879L31.5872 89.6842L31.7811 89.322L31.9752 88.9598V87.7703V86.5806H32.5346H33.0942L32.9649 88.5737L32.8356 90.5667H33.5809H34.3264L34.4376 90.1241L34.5488 89.6814L34.4692 89.5352L34.3895 89.389L34.5882 86.3994L34.7868 83.4098L35.9054 83.4712L37.0241 83.5326L37.2051 83.1947L37.3861 82.8568L37.2115 82.545L37.0368 82.2332L35.549 81.2265L34.0612 80.2198L33.4263 79.7674L32.7915 79.3151L32.4049 78.9165L32.0182 78.5177L31.3461 76.3435L30.6741 74.1692L29.8774 72.1471L29.0809 70.1249L28.7147 67.7986L28.3483 65.4722L28.0662 63.9524L27.784 62.4324L27.2416 61.2345L26.6991 60.0365L26.1542 59.3571L25.6094 58.6776H26.1241H26.6387L27.6882 58.9507L28.7377 59.2237L30.6739 60.3011L32.6101 61.3784L33.9669 61.7493L35.3237 62.1202H36.416H37.5084L39.3219 61.7582L41.1355 61.3962L41.6343 61.284L42.1332 61.172L42.1326 61.0571L42.1322 60.9425L40.649 59.6741L39.1659 58.4058L38.2287 57.6552L37.2916 56.9043L36.4033 56.4321L35.5153 55.9598H35.0906H34.6658L34.7449 55.7333L34.824 55.5068L35.9845 55.536L37.1449 55.5652L38.4981 55.8513L39.8514 56.1374L42.0352 57.1607L44.2192 58.1839L48.1191 60.0492L52.019 61.9147L52.8353 62.1383L53.6515 62.3619L52.6539 62.6101L51.6562 62.8583L49.1441 63.0205L46.6322 63.1827L46.547 63.2676L46.4619 63.3528L48.1421 65.3183L49.8224 67.284L51.1021 68.6225L52.3818 69.9607L53.7422 70.8388L55.1027 71.7166L54.8669 71.7199L54.6312 71.7232L54.0506 71.4294L53.4701 71.1359L53.1516 70.8569L52.8331 70.5779L52.7114 70.6994L52.5897 70.821L53.1206 71.387L53.6515 71.9533L54.8482 72.7351L56.045 73.5167L57.4573 74.0773L58.8698 74.6377L59.9792 74.899L61.0886 75.1603L62.2268 75.163L63.3651 75.1657L64.3887 74.8064L65.4121 74.447L65.8529 74.0364L66.2936 73.6256L66.6662 72.9009L67.039 72.1761L67.0283 70.3383L67.0176 68.5005L66.7983 67.4393L66.5792 66.3781L66.2463 65.7235L65.9136 65.069L64.9822 64.2325L64.0507 63.3959L62.9555 62.7313L61.8602 62.0667L59.5892 61.0995L57.3184 60.1324L55.9957 59.3089L54.673 58.4855L53.8427 57.5631L53.0125 56.6407L52.2746 55.1533L51.5367 53.6658L51.4369 52.5669L51.3372 51.4678L51.6328 50.6013L51.9283 49.7349V49.691V49.6474L51.0667 49.3703L50.2051 49.0933L49.1287 48.9027L48.0525 48.7123L46.8613 48.7222L45.6703 48.7322L44.3775 49.0708ZM86.6099 48.9831L85.6482 49.2533L85.2948 49.4421L84.9416 49.6309V49.8735V50.1163L85.2137 50.8865L85.4858 51.6567V52.4273V53.1978L85.203 53.8993L84.9204 54.6009L84.3552 55.688L83.79 56.7751L83.1085 57.7019L82.427 58.6285L81.499 59.309L80.5708 59.9896L77.4505 61.288L74.3302 62.5864L73.2419 63.3316L72.1535 64.0767L71.5355 64.6838L70.9177 65.291L70.4653 66.2725L70.0131 67.2541L69.9258 69.3704L69.8386 71.4867L70.1453 72.409L70.4519 73.3312L71.1559 73.9664L71.8598 74.6017L72.8105 74.8838L73.7612 75.1657H75.2285H76.6956L78.0426 74.7928L79.3894 74.4201L81.012 73.6148L82.6345 72.8094L83.5776 72.0399L84.5204 71.2702L85.1392 70.4746L85.7579 69.679L87.2255 68.0285L88.6934 66.3781L89.9326 64.7474L91.1719 63.1167L89.6438 63.077L88.116 63.0374L86.4835 62.831L84.8509 62.6246L84.5788 62.4751L84.3068 62.3256L84.5788 62.237L84.8509 62.1483L85.8591 61.7873L86.8671 61.4266L88.58 60.658L90.2927 59.8894L93.1971 58.3013L96.1016 56.7132L97.0865 56.3254L98.0713 55.9377L99.533 55.5876L100.995 55.2376L101.947 55.2363L102.899 55.235V55.4925V55.7498L102.31 55.877L101.72 56.004L100.995 56.3662L100.269 56.7282L99.453 57.3787L98.6367 58.0291L97.0414 59.4734L95.4458 60.9176L96.4972 61.3068L97.5484 61.696L99.1161 61.924L100.684 62.1519L102.151 61.8531L103.617 61.5543L104.664 61.1291L105.711 60.704L106.981 59.9327L108.25 59.1616L109.208 58.7385L110.165 58.3152H110.525H110.884L110.356 59.2665L109.829 60.2177L109.188 61.8484L108.546 63.4791L107.914 66.7591L107.282 70.0392L106.528 72.0136L105.774 73.988L105.264 75.7093L104.753 77.4306L104.597 78.1497L104.441 78.8687L103.081 79.9252L101.72 80.9815L100.496 81.718L99.2716 82.4546V82.7742V83.0936L99.5337 83.3109L99.7958 83.5283L100.758 83.469L101.72 83.4098L101.747 86.5806L101.773 89.7514L101.792 90.1591L101.811 90.5667H102.537H103.262V88.7697V86.9727L103.372 86.686L103.482 86.3994H104.167H104.852L104.962 86.8071L105.071 87.2147L105.076 88.0301L105.08 88.8454L105.193 89.5249L105.305 90.2043H105.618H105.931L106.048 89.0906L106.164 87.977V87.2894V86.602L106.356 86.4837L106.548 86.3653L106.978 86.4731L107.408 86.5809L107.536 87.6226L107.664 88.6642L107.832 89.1111L107.999 89.5579L108.167 89.2922L108.336 89.0266L108.338 87.7927L108.341 86.5587L108.997 86.615L109.654 86.6712L109.678 88.3019L109.702 89.9326H110.243H110.784L110.908 89.2078L111.031 88.4831L111.159 85.7652L111.287 83.0474L111.07 82.2522L110.853 81.4569L110.116 79.9297L109.379 78.4025L109.6 77.6447L109.821 76.887L111.237 73.8974L112.653 70.9078L113.399 69.2615L114.145 67.6153L114.782 65.7641L115.42 63.9127L116.053 61.4898L116.685 59.0668V58.7278V58.3888L116.005 57.7293L115.325 57.0696L114.236 56.4142L113.148 55.7588L111.606 55.0241L110.064 54.2894L108.773 53.7766L107.48 53.2641L105.961 52.874L104.441 52.484L102.31 52.3877L100.179 52.2913V52.442V52.5926L100.859 53.309L101.539 54.0254L100.995 53.6543L100.451 53.2833L99.2716 52.725L98.0925 52.1668L97.1948 51.4225L96.2971 50.6783L95.5139 50.2197L94.7304 49.7613L93.4186 49.3064L92.1066 48.8516L89.8392 48.7824L87.5718 48.713L86.6099 48.9831ZM84.671 70.5646L83.9471 71.2031L82.9824 71.7543L82.0178 72.3057L81.9255 72.2133L81.8331 72.121L83.4185 71.0162L85.0039 69.9113L85.1994 69.9189L85.3951 69.9263L84.671 70.5646ZM125.301 71.3023L124.939 71.3981L124.621 71.6793L124.304 71.9605L124.306 72.2495L124.309 72.5385L124.442 72.7405L124.576 72.9426L124.984 73.0699L125.392 73.1971V72.6635V72.1299L125.679 71.8917L125.967 71.6536L126.269 71.8436L126.571 72.0337L126.633 72.3495L126.695 72.6653L126.579 73.2841L126.463 73.9028L125.383 75.0556L124.304 76.2085V76.593V76.9776H126.208H128.113V76.1623V75.3469H127.862H127.611L127.516 75.7093L127.421 76.0717H126.275H125.13L126.329 74.8487L127.528 73.6256L127.73 73.2299L127.931 72.834V72.4914V72.1488L127.521 71.7637L127.111 71.3789L126.388 71.2925L125.664 71.2062L125.301 71.3023ZM130.018 71.3508L129.655 71.4992L129.332 71.858L129.009 72.2167L128.852 73.193L128.694 74.1692L128.852 75.1563L129.009 76.1436L129.472 76.6058L129.935 77.0682H130.763H131.591L132.017 76.5734L132.443 76.0784L132.569 75.2409L132.694 74.4033L132.595 73.4417L132.496 72.4802L132.197 72.0247L131.898 71.5691L131.339 71.3744L130.78 71.1796L130.58 71.191L130.38 71.2026L130.018 71.3508ZM4.80688 71.8241L4.40365 72.106V72.5425V72.9788L4.75446 73.1663L5.10546 73.3538H5.20794H5.31061V72.9137V72.4738L5.59558 72.189L5.88072 71.9043H6.01278H6.14501L6.36268 72.1218L6.58035 72.3392V73.0005V73.6619L6.05867 74.3685L5.53699 75.0751L4.87962 75.6995L4.22226 76.3239V76.7413V77.1588H6.12687H8.03149V76.3435V75.5281H7.80311H7.57456L7.348 75.8905L7.12144 76.2529H6.08479H5.04832L6.24732 75.0298L7.4465 73.8068L7.64839 73.4111L7.8501 73.0152V72.7233V72.4314L7.40478 71.9868L6.95964 71.542H6.08479H5.20994L4.80688 71.8241ZM9.32844 71.9659L8.92974 72.3899L8.7527 73.0065L8.57566 73.6233L8.57675 74.3491L8.57766 75.0751L8.76431 75.7464L8.95096 76.4176L9.42258 76.7883L9.89438 77.1588H10.4643H11.0344L11.4567 76.8633L11.879 76.5679L12.132 75.9631L12.3849 75.3585V74.4694V73.5803L12.2721 73.0167L12.1592 72.453L11.7366 71.9975L11.3138 71.542H10.5205H9.72732L9.32844 71.9659ZM131.015 71.9004L131.287 72.0718L131.347 73.8452L131.406 75.6187L131.215 76.117L131.024 76.6152H130.77H130.515L130.266 76.3156L130.018 76.016L130.021 74.2772L130.024 72.5385L130.254 72.1308L130.484 71.7232L130.613 71.7259L130.743 71.7288L131.015 71.9004ZM11.0288 72.4932L11.1307 72.9009L11.0776 74.603L11.0245 76.305L10.6963 76.5054L10.3684 76.7058L10.1068 76.3541L9.84541 76.0025V74.3944V72.7865L10.0331 72.4359L10.2209 72.0855H10.5739H10.9269L11.0288 72.4932ZM65.0792 77.9952L62.177 78.993L61.27 79.2745L60.363 79.5559L59.2495 79.467L58.1359 79.378L57.0905 78.9L56.045 78.4219L55.9456 78.5212L55.8464 78.6204L57.8326 80.5731L59.8189 82.526L61.3674 83.285L62.9161 84.0439H63.8677H64.8191L65.6747 83.6105L66.5304 83.1771L66.8297 82.8405L67.1291 82.5039L67.5168 81.193L67.9046 79.8821L68.2605 79.6918L68.6164 79.5016L68.9405 79.6748L69.2647 79.8482L69.5962 80.9536L69.9276 82.059L70.3204 82.641L70.7131 83.2232L71.4334 83.6305L72.1535 84.038L72.9703 84.0411L73.7871 84.0439L74.9937 83.6993L76.2005 83.3545L76.9885 82.8923L77.7767 82.4301L78.8487 81.5609L79.9209 80.692L80.828 79.6492L81.7352 78.6063L81.6539 78.5251L81.5726 78.444L80.3094 78.9201L79.0464 79.3961L77.5046 79.3918L75.9627 79.3874L73.8767 78.6471L71.7907 77.9067L70.521 77.45L69.2512 76.993L68.6164 76.9952L67.9815 76.9974L65.0792 77.9952ZM20.1076 85.4713L19.9816 85.6752L20.3703 86.825L20.7592 87.9748L21.6649 88.1837L22.5706 88.3925H23.0814H23.5924L23.7052 88.0986L23.8182 87.8047L23.6996 86.6491L23.5811 85.4935L22.8352 85.4918L22.0894 85.4904L21.1615 85.3789L20.2337 85.2675L20.1076 85.4713ZM38.6936 85.6304L37.5216 85.6939L37.2878 85.8877L37.0542 86.0814V87.2368V88.3925H44.854H52.6539V88.0623V87.7322L52.3577 86.8393L52.0615 85.9464L51.9125 85.7826L51.7636 85.6188L45.8147 85.5929L39.8658 85.567L38.6936 85.6304ZM84.9714 85.7652L84.8533 85.9464L84.5373 86.943L84.2213 87.9395L84.2188 88.166L84.2161 88.3925H91.6424H99.0688L99.1798 88.2131L99.2906 88.0339L99.0991 86.9986L98.9075 85.9633L98.7169 85.7736L98.5264 85.584H91.808H85.0895L84.9714 85.7652ZM113.575 85.6148L113.276 85.694L113.169 86.0921L113.062 86.49L113.06 87.3506L113.057 88.2113H114.489H115.921L116.394 87.0316L116.867 85.852V85.6727V85.4935L115.37 85.5145L113.874 85.5355L113.575 85.6148ZM70.4887 86.8027L70.1128 87.2147L69.9088 87.6105L69.7047 88.0064V88.4298V88.8534L70.2425 89.5053L70.7806 90.1571L71.4036 90.4526L72.0269 90.7479L72.9972 90.7468L73.9674 90.7459L74.6495 90.5568L75.3317 90.3674L76.0552 89.6798L76.779 88.9922V88.3615V87.7309L76.348 87.3264L75.917 86.9219L74.7608 86.7696L73.6046 86.617L72.2346 86.5039L70.8644 86.3907L70.4887 86.8027ZM64.1723 86.7701L63.2653 86.9113L62.3469 86.927L61.4285 86.943L60.9108 87.4827L60.3933 88.0223V88.5447V89.067L60.7908 89.6247L61.1882 90.1822L62.1702 90.6463L63.1521 91.1103H63.9575H64.7629L65.4085 90.8409L66.0542 90.5713L66.6094 89.9802L67.1645 89.389L67.3517 88.8262L67.5389 88.2635L67.3593 87.7916L67.1797 87.3198L66.8097 86.9502L66.4397 86.5806L65.7594 86.6049L65.0792 86.629L64.1723 86.7701ZM63.3177 94.1983L61.5561 94.5326L61.1864 94.7302L60.8165 94.9279V95.4325V95.9371L61.4518 96.6786L62.0872 97.4198L63.0293 97.8889L63.9715 98.3578H64.8492H65.7268L66.1708 98.0674L66.6147 97.7767L67.0029 97.1493L67.3911 96.5218L67.2989 95.7049L67.2068 94.8877L66.6985 94.3579L66.1904 93.8281L65.6348 93.846L65.0792 93.8638L63.3177 94.1983ZM70.3409 94.6257L69.8535 95.264L69.7695 95.9504L69.6857 96.6365L70.0563 97.227L70.427 97.8175L71.0182 98.1882L71.6093 98.5588L72.4211 98.4562L73.2328 98.3536L74.0536 97.9279L74.8744 97.5022L75.4639 96.7382L76.0534 95.9743V95.2591V94.5438L75.5992 94.3713L75.145 94.1988L74.4655 94.2358L73.786 94.2726L72.3071 94.13L70.8283 93.9874L70.3409 94.6257ZM20.6406 96.9045L20.5308 97.0821L20.7206 97.4363L20.9103 97.7905V98.0467V98.3029L17.7459 100.505L14.5815 102.706H14.3098H14.0379L13.7811 102.34L13.524 101.973L13.2162 102.092L12.9082 102.21L12.9878 102.417L13.0677 102.624L14.4161 104.548L15.7646 106.473L16.0809 106.295L16.3975 106.119L16.1143 105.687L15.8313 105.256V104.92V104.584L17.0303 103.722L18.2292 102.861L18.4361 102.789L18.6429 102.716L19.5149 103.98L20.3866 105.243L20.5125 105.24L20.6382 105.237L20.8976 105.073L21.157 104.909L20.1987 103.525L19.2402 102.14L19.3043 102.092L19.3685 102.044L20.866 101.025L22.3636 100.007L23.0881 100.986L23.8126 101.966V102.372V102.777L23.3228 103.288L22.8329 103.799L23.136 104.101L23.4391 104.404L23.8525 104.18L24.2661 103.956L24.888 103.445L25.51 102.934L23.3462 99.8374L21.1824 96.7402L20.9664 96.7336L20.7503 96.7271L20.6406 96.9045ZM114.8 98.1647L113.783 99.6145V99.7865V99.9583L114.01 100.035L114.236 100.112L114.551 99.918L114.865 99.7238L115.17 100.028L115.474 100.332L115.892 102.19L116.31 104.047L116.236 104.121L116.162 104.196L114.7 103.167L113.239 102.138V101.919V101.7L113.508 101.317L113.776 100.933L113.5 100.704L113.223 100.475L113.069 100.639L112.915 100.804L111.789 102.423L110.662 104.041L110.571 104.278L110.48 104.515L110.783 104.631L111.085 104.747L111.367 104.345L111.649 103.943L111.945 104.022L112.241 104.1L115.279 106.242L118.318 108.384V108.77V109.157L118.116 109.358L117.914 109.56L118.036 109.757L118.158 109.954L118.374 109.952L118.59 109.95L119.894 108.095L121.198 106.239L120.921 105.968L120.643 105.696L120.365 106.104L120.087 106.511H119.793H119.499L118.364 105.743L117.229 104.974V104.545V104.115L117.819 104.219L118.408 104.322L120.156 104.444L121.903 104.565L122.695 103.833L123.487 103.101L123.804 102.56L124.12 102.02L123.84 101.912L123.559 101.805L123.108 102.1L122.656 102.395L119.809 102.265L116.962 102.135L116.84 101.939L116.719 101.743L116.407 100.137L116.094 98.5307L116.19 97.8171L116.286 97.1036L116.051 96.9092L115.817 96.715L114.8 98.1647ZM37.8632 115.039L37.7244 115.263L38.1975 115.607L38.6707 115.952L38.5001 116.4L38.3296 116.848L36.6794 119.697L35.0295 122.546L34.7774 122.806L34.5254 123.066L34.0839 122.83L33.6424 122.594L33.4436 122.717L33.245 122.84V123.003V123.166L35.2696 124.36L37.2943 125.553L37.4436 125.318L37.5927 125.083L37.5956 124.954L37.5984 124.824L37.2356 124.63L36.8728 124.436L36.8733 124.035L36.8737 123.634L37.5273 122.546L38.1808 121.459L38.2387 121.398L38.2965 121.336L38.6731 121.455L39.0495 121.574V123.813V126.052L39.4812 126.564L39.9129 127.076L40.6407 127.484L41.3684 127.893L41.4787 127.606L41.589 127.318L41.3169 126.93L41.0448 126.543V124.409V122.275H41.7435H42.4422L43.0428 121.867L43.6434 121.459L43.9962 120.776L44.349 120.094L44.2297 119.459L44.1105 118.824L43.5489 118.185L42.9873 117.547L40.8065 116.262L38.6254 114.977L38.3138 114.896L38.0021 114.814L37.8632 115.039ZM93.9205 117.413L93.195 117.79L93.1365 117.841L93.0781 117.892L93.454 121.815L93.8298 125.737V126.73V127.722L93.5577 127.826L93.2857 127.93V128.188V128.446L93.5382 128.543L93.7906 128.64L95.2737 127.895L96.7568 127.15L96.68 126.932L96.6031 126.714L95.9565 126.765L95.3098 126.816L95.1877 126.619L95.0655 126.422L94.9347 125.459L94.8039 124.496L96.3381 123.736L97.8723 122.976L98.572 123.659L99.2716 124.341V124.745V125.149L98.9088 125.264L98.546 125.379V125.534V125.688L98.65 125.958L98.7539 126.229L100.781 125.252L102.809 124.275V123.954V123.634L102.199 123.693L101.589 123.753L98.2025 120.386L94.8153 117.02L94.7308 117.028L94.6461 117.036L93.9205 117.413ZM41.5032 117.646L42.0864 118.09L42.1767 118.436L42.2672 118.781L42.0332 119.461L41.799 120.141L41.2973 120.664L40.7956 121.188H40.3669H39.9385L39.4032 120.911L38.8681 120.635V120.458V120.281L39.7297 118.745L40.5913 117.21L40.7557 117.206L40.9198 117.201L41.5032 117.646ZM97.0869 122.281L97.0949 122.378L95.926 122.954L94.7569 123.53L94.6693 123.219L94.5815 122.909L94.4703 121.731L94.3589 120.553L94.2612 119.829L94.1636 119.104L95.6211 120.644L97.0787 122.184L97.0869 122.281ZM64.263 123.905V124.268H64.6802H65.0974L65.315 124.485L65.5327 124.703V128.566V132.43L65.064 132.608L64.5953 132.786L64.4291 132.684L64.263 132.581V133.045V133.508H68.3443H72.4256V132.24V130.972H71.9792H71.5326L71.3423 131.678L71.1519 132.384L70.8669 132.493L70.5819 132.602H69.1457H67.7094V130.609V128.616H69.3419H70.9745V128.254V127.891H69.3419H67.7094V126.17V124.449H69.1542H70.599L70.7867 124.799L70.9745 125.15V125.615V126.08H71.5319H72.0891L72.0465 125.038L72.0037 123.996L71.9231 123.769L71.8426 123.543H68.0528H64.263V123.905Z" fill="white"/>
</svg>
