<svg width="78" height="78" viewBox="0 0 78 78" fill="none" xmlns="http://www.w3.org/2000/svg">
<path fill-rule="evenodd" clip-rule="evenodd" d="M36.5067 0.0900569L35.1349 0.180217L33.9249 0.343207L32.7149 0.506197L31.6305 0.716124L30.5461 0.926051L29.2036 1.27607L27.861 1.62608L26.725 2.00003L25.589 2.37398L24.1948 2.94331L22.8006 3.51264L21.4064 4.22031L20.0122 4.92797L18.8761 5.6115L17.7401 6.29502L16.6442 7.06355L15.5482 7.83208L14.4754 8.69118L13.4026 9.55018L11.9494 10.9492L10.4964 12.3482L9.42893 13.5886L8.36149 14.8291L7.42201 16.1186L6.48262 17.4082L5.69216 18.7284L4.9017 20.0487L4.1099 21.6353L3.3182 23.2218L2.8199 24.4721L2.3216 25.7224L1.85811 27.1666L1.39472 28.6108L1.02696 30.2098L0.659199 31.8087L0.452548 33.253L0.245792 34.6972L0.122897 36.1755L0 37.6539L0.0614483 40.0955L0.123 42.5372L0.230405 43.3625L0.33781 44.1877L0.449036 44.8583L0.560366 45.5288L0.768463 46.6119L0.976561 47.6951L1.23051 48.6751L1.48446 49.6551L1.90438 50.9446L2.32439 52.2341L2.83787 53.5235L3.35135 54.813L4.20099 56.5151L5.05073 58.2172L5.88725 59.5583L6.72387 60.8994L7.48759 61.9309L8.2513 62.9625L9.02761 63.8909L9.80392 64.8194L10.8602 65.9229L11.9165 67.0263L13.0727 68.0482L14.2288 69.0701L15.2611 69.8737L16.2936 70.6773L17.3266 71.3681L18.3598 72.0589L19.4958 72.7125L20.6318 73.3661L21.9744 74.0131L23.3169 74.6601L24.453 75.1178L25.589 75.5754L27.0808 76.055L28.5726 76.5344L29.5593 76.7803L30.5461 77.0262L31.6821 77.2379L32.8182 77.4495L34.0058 77.6019L35.1935 77.7542L37.1288 77.877L39.0642 78L41.2082 77.8756L43.3521 77.7512L44.3332 77.6008L45.3143 77.4503L46.6524 77.1848L47.9904 76.9194L49.441 76.522L50.8916 76.1248L51.8725 75.7691L52.8534 75.4135L53.6578 75.0933L54.4621 74.7731L55.6012 74.2533L56.7403 73.7335L57.7872 73.1546L58.834 72.5756L59.9746 71.8577L61.1153 71.1399L62.4579 70.1296L63.8004 69.1194L64.9364 68.0962L66.0724 67.0729L67.2991 65.7923L68.5257 64.5117L69.4748 63.3245L70.4239 62.1373L71.0416 61.2604L71.6594 60.3836L72.2315 59.4551L72.8036 58.5267L73.4335 57.3404L74.0635 56.1541L74.5733 55.0193L75.083 53.8846L75.5466 52.6467L76.0103 51.4088L76.4308 49.9646L76.8513 48.5204L77.1094 47.2825L77.3675 46.0446L77.5364 45.0668L77.7054 44.0891L77.8509 42.591L77.9964 41.093L77.9982 39.0814L78 37.0698L77.8464 35.4709L77.6928 33.8719L77.4777 32.5824L77.2627 31.2929L76.957 30.0035L76.6513 28.714L76.2828 27.4761L75.9143 26.2382L75.4488 25.0003L74.9834 23.7624L74.1755 22.1119L73.3677 20.4613L72.6385 19.2398L71.9093 18.0184L71.1188 16.8672L70.3284 15.7161L69.3462 14.4782L68.364 13.2403L66.4954 11.3791L64.6266 9.51789L63.4906 8.61773L62.3546 7.71758L61.1669 6.90634L59.9793 6.0951L58.9982 5.50916L58.0171 4.92323L56.1581 4.01275L54.2992 3.10228L53.4214 2.76774L52.5435 2.43319L51.3559 2.02943L50.1682 1.62557L48.5675 1.22263L46.9667 0.819592L45.7791 0.609046L44.5914 0.3985L43.3005 0.24923L42.0096 0.099857L39.9441 0.0499283L37.8786 0L36.5067 0.0900569ZM43.0939 0.500111L44.0751 0.617505L45.5725 0.871171L47.07 1.12484L48.5158 1.48651L49.9617 1.84818L51.3559 2.31993L52.7501 2.79177L54.0746 3.35099L55.3992 3.91032L56.4086 4.41641L57.4181 4.9224L58.4405 5.51164L59.4629 6.10098L60.1858 6.57046L60.9087 7.04003L61.8898 7.7576L62.8709 8.47517L63.6949 9.1556L64.5189 9.83603L65.3989 10.6387L66.279 11.4415L67.3004 12.5471L68.3219 13.6529L69.1254 14.6538L69.929 15.6548L70.6489 16.669L71.369 17.6834L72.064 18.8144L72.7591 19.9455L73.4544 21.2866L74.1497 22.6277L74.6751 23.8656L75.2003 25.1035L75.6574 26.4445L76.1144 27.7856L76.4836 29.2298L76.8528 30.674L77.0626 31.8087L77.2723 32.9435L77.4312 34.1814L77.5901 35.4193L77.6803 37.2761L77.7704 39.133L77.6828 40.8698L77.5952 42.6066L77.4306 43.8614L77.266 45.1161L77.0571 46.1993L76.8481 47.2825L76.5934 48.3141L76.3386 49.3456L75.9192 50.6867L75.4997 52.0277L75.0025 53.2733L74.5051 54.5188L73.9475 55.6975L73.3899 56.8762L72.6869 58.1141L71.9837 59.352L71.0654 60.7026L70.1472 62.0533L69.2459 63.1784L68.3445 64.3036L66.847 65.8384L65.3495 67.3732L64.3128 68.2681L63.2761 69.1631L62.2085 69.9706L61.1409 70.7782L59.8888 71.5692L58.6367 72.3603L57.9138 72.7629L57.1909 73.1655L56.0032 73.7523L54.8156 74.3389L53.3697 74.908L51.9239 75.4771L50.5813 75.897L49.2388 76.3169L47.9478 76.6207L46.6569 76.9245L45.7791 77.083L44.9012 77.2416L43.6103 77.4228L42.3194 77.604L39.1179 77.6062L35.9164 77.6086L34.5222 77.4234L33.128 77.2383L31.7581 76.9829L30.3881 76.7274L29.3827 76.4689L28.3774 76.2103L27.0864 75.7916L25.7955 75.373L24.6079 74.9084L23.4202 74.4439L21.7162 73.592L20.0122 72.7402L19.0311 72.1465L18.05 71.5528L17.0688 70.8776L16.0877 70.2026L15.2193 69.527L14.3508 68.8513L13.3087 67.9268L12.2666 67.0022L11.2539 65.9624L10.2413 64.9225L9.41096 63.9425L8.58064 62.9625L7.85855 62.0059L7.13635 61.0492L6.21039 59.5817L5.28433 58.1141L4.36788 56.2572L3.45142 54.4004L2.97998 53.1935L2.50853 51.9867L2.24405 51.182L1.97956 50.3772L1.63215 49.1393L1.28473 47.9014L1.07622 46.8698L0.867813 45.8383L0.659096 44.4456L0.450276 43.053L0.331716 41.2477L0.213158 39.4424L0.279873 37.8951L0.346485 36.3477L0.448726 35.2645L0.551071 34.1814L0.80306 32.634L1.05515 31.0866L1.46412 29.4877L1.87308 27.8887L2.27771 26.7024L2.68234 25.5161L3.0691 24.5361L3.45586 23.5561L4.26336 21.9055L5.07087 20.255L5.89417 18.8965L6.71737 17.5381L7.58146 16.3276L8.44545 15.117L9.42263 13.9724L10.3997 12.8276L11.6459 11.5897L12.8921 10.3518L14.0769 9.35717L15.2616 8.36252L16.4479 7.51508L17.6342 6.66763L18.5942 6.10325L19.5543 5.53887L21.2807 4.6807L23.0071 3.82253L24.0915 3.35863L25.1759 2.89462L26.6333 2.36738L28.0906 1.84003L29.525 1.47743L30.9592 1.11493L32.4051 0.866942L33.8509 0.618949L35.0386 0.507332L36.2262 0.395818L36.6393 0.355277L37.0524 0.314839L39.5826 0.348778L42.1128 0.382614L43.0939 0.500111ZM55.1922 5.73054L55.0954 5.90333L55.3428 6.09768L55.5901 6.29203V6.40241V6.51269L54.4916 8.22594L53.3932 9.93919L53.2561 10.0864L53.1192 10.2337L52.8404 10.1068L52.5617 9.97994L52.4163 10.1253L52.2709 10.2705L53.4278 11.0173L54.5846 11.7641L54.6727 11.6253L54.7607 11.4866L54.7624 11.4128L54.7639 11.3391L54.5574 11.2287L54.3508 11.1183V10.9357V10.7532L54.7895 10.0625L55.2281 9.37182H55.3369H55.4455L55.5624 9.4886L55.6795 9.60548L55.6203 10.8562L55.5611 12.1069L55.835 12.4319L56.1089 12.7571L56.4677 12.9686L56.8267 13.1801L56.9292 12.989L57.0316 12.7977L56.8758 12.6686L56.72 12.5394L56.7489 11.2909L56.7778 10.0423L57.331 9.98685L57.8843 9.93135L58.2863 9.50087L58.6883 9.07029V8.62609V8.18179L58.4293 7.80113L58.1704 7.42048L57.1642 6.76047L56.1581 6.10057L55.7235 5.82916L55.289 5.55786L55.1922 5.73054ZM20.2433 6.75779L19.8573 7.03209V7.19766V7.36312L20.5285 9.64994L21.1998 11.9366V12.2472V12.5576L21.0965 12.6213L20.9933 12.6851L20.9948 12.7563L20.9965 12.8276L21.0899 12.9752L21.1835 13.1229L21.992 12.5207L22.8006 11.9187L22.8412 11.8857L22.8816 11.8526L22.749 11.6931L22.6165 11.5335L22.3645 11.6983L22.1126 11.8633L21.9785 11.8119L21.8444 11.7605L21.6769 11.2698L21.5096 10.7793V10.6628V10.5464L22.1604 10.0691L22.8111 9.59186L22.9264 9.55916L23.0416 9.52656L23.4642 9.78363L23.8869 10.0407L23.9469 10.2295L24.0068 10.4182L23.8333 10.6097L23.6598 10.8012L23.7549 10.9709L23.8499 11.1406L24.9083 10.3539L25.9665 9.5671L25.8488 9.42536L25.7311 9.28372L25.3885 9.33922L25.046 9.39472L22.873 7.93906L20.7 6.48339H20.6646H20.6293L20.2433 6.75779ZM57.207 7.3655L57.5523 7.62865V7.96897V8.30929L57.2391 8.74111L56.926 9.17304L56.6758 9.28682L56.4256 9.40071L56.1145 9.27196L55.8035 9.14333L55.6844 8.99994L55.5653 8.85655L56.1184 7.9795L56.6714 7.10234H56.7665H56.8615L57.207 7.3655ZM22.1094 8.82869L22.5543 9.14436L21.928 9.62569L21.3016 10.1071L21.2491 9.97014L21.1964 9.83315L20.8493 8.72873L20.5022 7.62432L21.0834 8.06873L21.6646 8.51303L22.1094 8.82869ZM36.7942 9.26381L35.8131 9.34737L34.5738 9.52666L33.3345 9.70595L31.9403 10.0482L30.5461 10.3905L29.2643 10.82L27.9823 11.2495L26.7626 11.794L25.5427 12.3385L24.4815 12.9382L23.4202 13.5379L22.4451 14.1977L21.47 14.8574L20.2763 15.8189L19.0827 16.7803L17.825 18.0535L16.5675 19.3266L16.0609 19.9455L15.5544 20.5645L14.878 21.4929L14.2014 22.4213L13.64 23.3498L13.0785 24.2782L12.6015 25.155L12.1246 26.0319L11.6178 27.2182L11.1112 28.4045L10.7356 29.5393L10.36 30.674L10.0477 31.9119L9.73545 33.1498L9.50711 34.594L9.27877 36.0382L9.27588 38.9782L9.27299 41.9182L9.45899 43.1046L9.64498 44.2909L9.89769 45.4156L10.1503 46.5404L10.4649 47.6335L10.7793 48.7267L11.3518 50.1709L11.9242 51.6151L12.5245 52.7654L13.1247 53.9158L13.8904 55.0865L14.6561 56.2572L15.6877 57.5467L16.7193 58.8362L17.8719 59.9903L19.0245 61.1445L20.1747 62.0828L21.3249 63.021L22.4758 63.7742L23.6268 64.5274L24.5836 65.0689L25.5404 65.6104L26.804 66.1774L28.0676 66.7446L29.4431 67.2043L30.8187 67.664L31.8981 67.9187L32.9775 68.1735L34.2405 68.3755L35.5033 68.5775L36.7426 68.6832L37.9819 68.7888L39.0865 68.7899L40.191 68.791L41.5134 68.6799L42.8358 68.5688L44.0234 68.3679L45.2111 68.1672L46.3987 67.8657L47.5864 67.5644L48.774 67.1539L49.9617 66.7435L50.8395 66.3685L51.7173 65.9935L52.905 65.3737L54.0926 64.7539L55.5385 63.7868L56.9843 62.8195L57.8622 62.0866L58.74 61.3537L59.8766 60.2452L61.0134 59.1368L61.798 58.2128L62.5827 57.2888L63.2523 56.3604L63.9219 55.432L64.5135 54.452L65.1052 53.472L65.7062 52.2341L66.3072 50.9962L66.7792 49.8098L67.251 48.6235L67.6223 47.334L67.9936 46.0446L68.1884 45.1677L68.3832 44.2909L68.5692 43.1046L68.7552 41.9182L68.7564 38.9782L68.7576 36.0382L68.6228 35.1098L68.488 34.1814L68.2335 32.9457L67.9789 31.7101L67.6118 30.4699L67.2447 29.2298L66.8007 28.0938L66.3568 26.9577L65.6615 25.5721L64.9664 24.1864L64.3455 23.2007L63.7246 22.215L62.8375 21.0287L61.9503 19.8424L60.1386 18.0337L58.3269 16.2251L57.1392 15.3325L55.9516 14.44L54.8672 13.7587L53.7828 13.0775L52.2337 12.3164L50.6846 11.5553L49.2569 11.025L47.8293 10.4947L46.262 10.098L44.6947 9.70121L43.1903 9.48592L41.6859 9.27052L39.7306 9.22534L37.7753 9.18015L36.7942 9.26381ZM42.371 9.63642L43.7652 9.79766L45.0005 10.0574L46.2358 10.3171L47.4238 10.6768L48.612 11.0365L49.8929 11.5479L51.1739 12.0593L52.6093 12.7869L54.0447 13.5143L55.3338 14.3743L56.6229 15.2341L57.888 16.3658L59.1531 17.4975L60.2923 18.67L61.4315 19.8424L62.3134 20.9255L63.1952 22.0087L63.6609 22.6792L64.1267 23.3498L64.604 24.1755L65.0813 25.0014L65.6949 26.2903L66.3083 27.5792L66.7289 28.714L67.1494 29.8487L67.4171 30.7772L67.6848 31.7056L67.9341 32.8501L68.1834 33.9948L68.3349 35.2743L68.4863 36.554L68.5526 37.8951L68.619 39.2361L68.5041 40.7835L68.3893 42.3309L68.1834 43.6204L67.9775 44.9098L67.8138 45.5804L67.6501 46.2509L67.4125 47.0762L67.175 47.9014L67.0605 48.2109L66.946 48.5204L66.8534 48.7267L66.7608 48.933L66.6563 49.2425L66.5517 49.552L66.3009 50.2233L66.0499 50.8948L65.4769 52.0802L64.9038 53.2656L64.246 54.3549L63.5884 55.444L62.6862 56.6438L61.7841 57.8435L60.8204 58.9073L59.8569 59.9709L58.7497 60.9509L57.6426 61.9309L56.4873 62.7932L55.3319 63.6555L54.1197 64.373L52.9075 65.0905L51.7444 65.6424L50.5813 66.1943L49.4711 66.6105L48.3609 67.0267L47.2965 67.3316L46.232 67.6363L45.2568 67.845L44.2816 68.0537L43.0939 68.2392L41.9063 68.4246L39.1695 68.4273L36.4328 68.4299L35.4517 68.2919L34.4706 68.1539L33.4255 67.9555L32.3805 67.7571L31.0502 67.3937L29.7199 67.0303L28.7686 66.6751L27.8172 66.3199L26.7031 65.8217L25.589 65.3233L24.453 64.672L23.3169 64.0205L22.3358 63.347L21.3547 62.6735L20.322 61.8232L19.2892 60.9731L18.3493 60.0594L17.4095 59.1457L16.6868 58.3204L15.9641 57.4951L15.3414 56.6699L14.7186 55.8446L14.0391 54.7968L13.3595 53.749L12.6939 52.4242L12.0282 51.0993L11.668 50.2225L11.3078 49.3456L10.8925 48.0562L10.4774 46.7667L10.2135 45.5804L9.94974 44.394L9.79205 43.3625L9.63445 42.3309L9.51093 40.5523L9.38742 38.7738L9.51083 37.0779L9.63424 35.3818L9.84089 34.1627L10.0475 32.9435L10.314 31.8723L10.5804 30.801L11.0261 29.4996L11.4717 28.1982L11.7482 27.5356L12.0245 26.8731L12.5982 25.7307L13.1718 24.5882L13.9108 23.4009L14.65 22.2137L15.4094 21.1999L16.1688 20.1863L17.1404 19.1115L18.1119 18.0368L19.1137 17.1457L20.1154 16.2546L20.9416 15.6138L21.7678 14.9731L22.2931 14.6078L22.8183 14.2425L23.7389 13.6759L24.6595 13.1092L25.8472 12.5162L27.0348 11.923L28.1708 11.4848L29.3068 11.0465L30.3396 10.7343L31.3723 10.4222L32.0436 10.263L32.7149 10.1038L33.6444 9.93249L34.5738 9.76114L35.6582 9.6293L36.7426 9.49736L38.8597 9.48633L40.9768 9.47519L42.371 9.63642ZM37.9157 14.6665L37.3453 15.0095L36.8412 15.3941L36.3371 15.7786L36.0235 16.2213L35.7098 16.6642L35.3796 17.3764L35.0493 18.0887L34.7919 18.7592L34.5346 19.4297L33.9526 20.8224L33.3707 22.215L32.7996 23.7108L32.2285 25.2066L31.4648 27.2659L30.701 29.3251L30.7021 29.4838L30.7031 29.6424L30.9454 30.1621L31.1877 30.6818L31.6836 31.1179L32.1795 31.5539L32.8087 31.853L33.4378 32.1522L33.7218 32.2145L34.0058 32.2769L34.0035 32.146L34.0014 32.0151L33.4438 31.6161L32.8861 31.2171L32.4557 30.8039L32.0251 30.3906L31.8282 30.0681L31.6312 29.7456L31.6353 29.5393L31.6392 29.3329L31.8156 29.0174L31.992 28.7018L32.6552 27.7443L33.3183 26.7868L34.1002 26.0058L34.8822 25.2248L35.5542 24.7961L36.2262 24.3676L37.1557 23.9702L38.0851 23.5727L38.5776 23.5252L39.07 23.4779L39.7652 23.711L40.4605 23.9442L41.3383 24.3831L42.2161 24.8219L42.858 25.304L43.4998 25.7861L44.1249 26.4675L44.7502 27.149L45.3234 27.9921L45.8967 28.8351L45.9922 29.2595L46.0877 29.6839L45.979 29.9693L45.8704 30.2548L45.4989 30.7075L45.1274 31.1604L44.3689 31.7207L43.6103 32.2811V32.3871V32.4932L43.8169 32.4346L44.0234 32.3761L44.2558 32.3141L44.4881 32.2522L45.0562 31.9832L45.6242 31.7142L46.2596 31.0847L46.8951 30.4552L47.0228 30.0293L47.1506 29.6034L46.8871 28.7977L46.6236 27.9919L45.9837 26.4961L45.3437 25.0003L44.9308 24.0203L44.5179 23.0403L44.1627 22.1634L43.8075 21.2866L43.2911 19.8424L42.7748 18.3982L42.2102 17.2382L41.6457 16.0782L41.0804 15.6351L40.5152 15.192L39.7894 14.7577L39.0636 14.3234H38.7748H38.4861L37.9157 14.6665ZM71.1071 22.7075L70.4616 23.0328V23.0941V23.1556L70.5907 23.3251L70.7198 23.4947L71.1429 23.3794L71.566 23.264L71.7253 23.325L71.8845 23.3861L72.3199 24.1738L72.7552 24.9616L72.7186 24.993L72.682 25.0244L69.9452 24.7853L67.2085 24.5463L67.0277 24.5997L66.847 24.6532V24.7607V24.8683L67.7882 26.7395L68.7295 28.6108L68.8124 28.7003L68.8953 28.7897L69.6192 28.4564L70.3431 28.1231L70.2278 27.8701L70.1123 27.6171L69.8997 27.678L69.687 27.7389L69.425 27.7966L69.1629 27.8542L68.9482 27.6651L68.7334 27.4761L68.3109 26.6894L67.8885 25.9028L67.9308 25.8606L67.9729 25.8184L70.6889 26.0558L73.4049 26.2932L73.6446 26.2361L73.8843 26.179L73.8512 26.0916L73.818 26.0042L72.8885 24.1883L71.9591 22.3725L71.8558 22.3774L71.7525 22.3821L71.1071 22.7075ZM5.30241 23.4788L4.83086 23.9689L4.28867 25.2631L3.74648 26.5574V26.6704V26.7835L3.90449 26.844L4.0626 26.9047L4.1793 26.6488L4.296 26.3929L4.56348 26.3999L4.83086 26.407L6.68979 27.2048L8.54873 28.0026L8.55575 28.3953L8.56288 28.788L8.71624 28.8737L8.8696 28.9595L9.46177 27.5603L10.0538 26.161L10.1617 25.6591L10.2695 25.1571L10.1555 24.812L10.0415 24.467L9.73886 24.1774L9.43626 23.8877L8.91422 23.8377L8.39227 23.7876L7.98433 24.0572L7.5764 24.3269L7.51062 23.9761L7.44473 23.6255L7.23808 23.4039L7.03142 23.1823L6.77644 23.0856L6.52145 22.9887H6.14771H5.77396L5.30241 23.4788ZM6.54542 24.462L6.89634 24.6975L6.92774 24.9648L6.95923 25.2322L6.82446 25.5422L6.68979 25.8521L5.83778 25.4936L4.98577 25.1351V24.9526V24.7702L5.19986 24.4984L5.41384 24.2266H5.80422H6.19449L6.54542 24.462ZM8.91184 25.2074L9.42305 25.4662L9.48997 25.7324L9.55679 25.9987L9.42181 26.4073L9.28683 26.8159L9.22755 26.8521L9.16837 26.8883L8.19212 26.4822L7.21587 26.076L7.17797 26.0382L7.14007 26.0003L7.35312 25.5832L7.56618 25.1661L7.74763 25.0605L7.92908 24.955L8.16486 24.9518L8.40063 24.9487L8.91184 25.2074ZM25.266 27.9381L24.5299 28.1308L23.8718 28.4605L23.2137 28.7902L22.5169 29.3567L21.8201 29.9232L20.0383 29.9402L18.2565 29.9573L17.3787 30.1916L16.5008 30.426L15.7779 30.6946L15.055 30.9632L13.7641 31.6061L12.4731 32.249L11.8277 32.734L11.1822 33.2189V33.6425V34.066L11.4492 34.949L11.7161 35.8319L12.0731 36.8335L12.4299 37.835L12.7306 38.7695L13.0312 39.704L13.9915 41.4768L14.9517 43.2497L15.1872 43.8598L15.4227 44.4698L15.3569 44.6898L15.291 44.9098L14.8975 45.7042L14.5041 46.4986L14.375 47.0745L14.2461 47.6504L14.3665 48.3036L14.487 48.9568L14.4973 49.8217L14.5075 50.6867L14.5788 50.9446L14.6501 51.2025L14.93 51.2351L15.2099 51.2678V50.2293V49.1909H15.5603H15.9107L15.9697 49.3444L16.0287 49.4979L16.0892 50.0407L16.1497 50.5835L16.2021 50.9252L16.2544 51.2669L16.4809 51.2347L16.7074 51.2025L16.759 50.2225L16.8107 49.2425L17.0888 49.2104L17.367 49.1783L17.4298 49.5714L17.4926 49.9646L17.6034 50.4011L17.7142 50.8375L17.8491 50.9493L17.984 51.0611L18.0944 50.8548L18.2049 50.6486V49.9714V49.2941H18.5234H18.842L18.7683 50.4288L18.6947 51.5635H19.119H19.5435L19.6068 51.3115L19.6701 51.0595L19.6248 50.9763L19.5794 50.893L19.6925 49.1909L19.8056 47.4888L20.4425 47.5238L21.0794 47.5587L21.1825 47.3663L21.2855 47.1739L21.1861 46.9964L21.0866 46.8189L20.2396 46.2457L19.3925 45.6726L19.0311 45.415L18.6696 45.1575L18.4495 44.9306L18.2293 44.7035L17.8467 43.4656L17.4641 42.2277L17.0105 41.0765L16.557 39.9251L16.3485 38.6007L16.1399 37.2761L15.9793 36.4108L15.8186 35.5454L15.5098 34.8635L15.2009 34.1814L14.8907 33.7945L14.5806 33.4077H14.8735H15.1665L15.7641 33.5631L16.3616 33.7186L17.464 34.332L18.5663 34.9454L19.3388 35.1565L20.1113 35.3677H20.7332H21.3551L22.3877 35.1616L23.4202 34.9555L23.7042 34.8916L23.9882 34.8279L23.9879 34.7625L23.9877 34.6972L23.1432 33.9751L22.2989 33.253L21.7652 32.8256L21.2317 32.3981L20.726 32.1292L20.2204 31.8603H19.9786H19.7367L19.7818 31.7314L19.8268 31.6024L20.4875 31.619L21.1482 31.6356L21.9186 31.7985L22.6891 31.9614L23.9325 32.544L25.1759 33.1266L27.3963 34.1886L29.6167 35.2507L30.0814 35.378L30.5461 35.5053L29.9781 35.6466L29.4101 35.788L27.9799 35.8803L26.5497 35.9726L26.5012 36.021L26.4528 36.0695L27.4094 37.1885L28.366 38.3077L29.0946 39.0697L29.8232 39.8317L30.5978 40.3316L31.3723 40.8314L31.2381 40.8332L31.1039 40.8351L30.7733 40.6679L30.4429 40.5007L30.2615 40.3419L30.0802 40.183L30.0109 40.2522L29.9416 40.3215L30.2438 40.6437L30.5461 40.9661L31.2274 41.4112L31.9088 41.8562L32.7129 42.1754L33.5171 42.4945L34.1487 42.6432L34.7804 42.792L35.4284 42.7935L36.0765 42.7951L36.6592 42.5905L37.2419 42.3859L37.4929 42.1521L37.7438 41.9182L37.9559 41.5056L38.1682 41.093L38.1621 40.0466L38.156 39.0003L38.0311 38.3961L37.9064 37.7919L37.7169 37.4192L37.5275 37.0466L36.9972 36.5703L36.4668 36.094L35.8433 35.7156L35.2197 35.3373L33.9267 34.7866L32.6338 34.2359L31.8807 33.7671L31.1277 33.2983L30.655 32.7732L30.1823 32.248L29.7622 31.4012L29.3421 30.5542L29.2853 29.9286L29.2285 29.3028L29.3968 28.8095L29.565 28.3162V28.2912V28.2664L29.0745 28.1087L28.5839 27.9509L27.9711 27.8424L27.3584 27.734L26.6802 27.7397L26.0021 27.7453L25.266 27.9381ZM49.3107 27.8882L48.7632 28.042L48.562 28.1495L48.3609 28.257V28.3951V28.5334L48.5158 28.9719L48.6707 29.4104V29.8491V30.2878L48.5097 30.6872L48.3488 31.0866L48.027 31.7056L47.7052 32.3245L47.3172 32.8522L46.9292 33.3797L46.4009 33.7672L45.8724 34.1547L44.0959 34.8939L42.3194 35.6331L41.6997 36.0574L41.0801 36.4816L40.7282 36.8273L40.3765 37.173L40.1189 37.7318L39.8615 38.2907L39.8118 39.4956L39.7621 40.7005L39.9367 41.2255L40.1113 41.7506L40.5121 42.1123L40.9129 42.474L41.4542 42.6346L41.9954 42.7951H42.8308H43.6661L44.433 42.5828L45.1998 42.3706L46.1236 41.9121L47.0474 41.4535L47.5843 41.0154L48.1211 40.5772L48.4734 40.1242L48.8257 39.6712L49.6613 38.7316L50.4969 37.7919L51.2025 36.8635L51.9081 35.9351L51.0381 35.9125L50.1682 35.8899L49.2388 35.7724L48.3093 35.6549L48.1544 35.5698L47.9995 35.4847L48.1544 35.4342L48.3093 35.3837L48.8833 35.1782L49.4572 34.9728L50.4324 34.5352L51.4075 34.0976L53.0611 33.1934L54.7148 32.2892L55.2755 32.0685L55.8362 31.8477L56.6684 31.6484L57.5007 31.4491L58.0429 31.4484L58.5851 31.4477V31.5943V31.7408L58.2494 31.8132L57.9138 31.8855L57.5007 32.0917L57.0876 32.2978L56.6229 32.6681L56.1581 33.0385L55.2498 33.8608L54.3414 34.683L54.94 34.9046L55.5385 35.1262L56.4311 35.256L57.3237 35.3857L58.1588 35.2156L58.9938 35.0455L59.5898 34.8034L60.1858 34.5614L60.9087 34.1223L61.6317 33.6832L62.1768 33.4423L62.7219 33.2014H62.9264H63.1309L62.8307 33.743L62.5305 34.2845L62.1652 35.213L61.8 36.1414L61.44 38.0089L61.0801 39.8763L60.651 41.0004L60.2219 42.1246L59.9311 43.1046L59.6403 44.0846L59.5516 44.494L59.4629 44.9033L58.6883 45.5048L57.9138 46.1063L57.2167 46.5256L56.5196 46.9449V47.1269V47.3088L56.6688 47.4325L56.8181 47.5563L57.3659 47.5225L57.9138 47.4888L57.9288 49.2941L57.9437 51.0993L57.9546 51.3314L57.9654 51.5635H58.3785H58.7916V50.5404V49.5173L58.8543 49.3541L58.917 49.1909H59.307H59.697L59.7593 49.423L59.8216 49.6551L59.8241 50.1193L59.8266 50.5835L59.8907 50.9704L59.9547 51.3572H60.1329H60.3113L60.3777 50.7231L60.444 50.0891V49.6976V49.3062L60.5532 49.2389L60.6623 49.1715L60.9072 49.2329L61.1521 49.2943L61.225 49.8873L61.2979 50.4804L61.3932 50.7348L61.4886 50.9892L61.5844 50.8379L61.6801 50.6867L61.6817 49.9842L61.6833 49.2816L62.0569 49.3137L62.4306 49.3456L62.4442 50.2741L62.4579 51.2025H62.7659H63.074L63.1444 50.7899L63.215 50.3772L63.2877 48.8298L63.3604 47.2825L63.237 46.8297L63.1134 46.3769L62.6939 45.5074L62.2744 44.6379L62.4002 44.2065L62.526 43.7751L63.3321 42.073L64.1381 40.3709L64.5628 39.4336L64.9874 38.4963L65.3506 37.4423L65.7136 36.3882L66.0738 35.0088L66.4339 33.6293V33.4363V33.2433L66.0466 32.8678L65.6594 32.4922L65.0397 32.119L64.4201 31.7459L63.5422 31.3276L62.6644 30.9093L61.9289 30.6174L61.1933 30.3255L60.3281 30.1034L59.4629 29.8814L58.2494 29.8266L57.036 29.7717V29.8575V29.9432L57.4232 30.3511L57.8105 30.759L57.5007 30.5477L57.1909 30.3365L56.5196 30.0186L55.8483 29.7008L55.3372 29.277L54.8261 28.8534L54.3802 28.5923L53.9341 28.3313L53.1872 28.0722L52.4403 27.8133L51.1493 27.7739L49.8584 27.7344L49.3107 27.8882ZM48.2068 40.1755L47.7947 40.539L47.2455 40.8528L46.6963 41.1667L46.6437 41.1141L46.5911 41.0616L47.4937 40.4326L48.3964 39.8035L48.5077 39.8078L48.6191 39.8121L48.2068 40.1755ZM71.3394 40.5954L71.1329 40.65L70.9522 40.8101L70.7714 40.9702L70.773 41.1348L70.7746 41.2993L70.8504 41.4143L70.9263 41.5293L71.1587 41.6019L71.3911 41.6743V41.3705V41.0667L71.5547 40.931L71.7182 40.7955L71.8903 40.9037L72.0624 41.0119L72.0978 41.1917L72.1331 41.3715L72.0669 41.7238L72.0008 42.0761L71.3861 42.7324L70.7714 43.3888V43.6077V43.8267H71.8558H72.9402V43.3625V42.8982H72.7974H72.6544L72.6004 43.1046L72.5464 43.3109H71.894H71.2417L71.9244 42.6146L72.6071 41.9182L72.7221 41.6929L72.8369 41.4675V41.2725V41.0774L72.6034 40.8582L72.3699 40.6391L71.9579 40.5899L71.546 40.5408L71.3394 40.5954ZM74.0246 40.6231L73.818 40.7076L73.6342 40.9118L73.4504 41.1161L73.3607 41.6719L73.271 42.2277L73.3608 42.7897L73.4506 43.3518L73.7141 43.615L73.9776 43.8783H74.4489H74.9203L75.163 43.5965L75.4055 43.3147L75.4771 42.8379L75.5487 42.361L75.4922 41.8135L75.4356 41.2661L75.2654 41.0067L75.0953 40.7474L74.7769 40.6365L74.4585 40.5256L74.3448 40.5321L74.2311 40.5387L74.0246 40.6231ZM2.73677 40.8925L2.50719 41.0531V41.3016V41.55L2.70692 41.6567L2.90676 41.7635H2.96511H3.02356V41.5129V41.2625L3.1858 41.1003L3.34815 40.9382H3.42333H3.49862L3.62255 41.062L3.74648 41.1858V41.5623V41.9389L3.44946 42.3412L3.15244 42.7435L2.77818 43.099L2.40391 43.4545V43.6922V43.9298H3.48829H4.57267V43.4656V43.0014H4.44265H4.31252L4.18353 43.2077L4.05454 43.414H3.46433H2.87422L3.55687 42.7177L4.23961 42.0214L4.35456 41.7961L4.4694 41.5707V41.4045V41.2383L4.21586 40.9852L3.96242 40.7319H3.46433H2.96624L2.73677 40.8925ZM5.31108 40.9733L5.08409 41.2147L4.98329 41.5658L4.88249 41.9169L4.88311 42.3302L4.88363 42.7435L4.9899 43.1257L5.09617 43.5078L5.36468 43.7189L5.6333 43.9298H5.95779H6.28237L6.5228 43.7616L6.76322 43.5934L6.90729 43.2491L7.05125 42.9048V42.3987V41.8925L6.98702 41.5715L6.92278 41.2506L6.68215 40.9913L6.44142 40.7319H5.9898H5.53818L5.31108 40.9733ZM74.5926 40.936L74.7475 41.0336L74.7815 42.0433L74.8153 43.053L74.7065 43.3367L74.5977 43.6204H74.4528H74.308L74.1663 43.4497L74.0246 43.2792L74.0263 42.2892L74.0281 41.2993L74.159 41.0672L74.29 40.8351L74.3638 40.8366L74.4377 40.8383L74.5926 40.936ZM6.27917 41.2735L6.33721 41.5056L6.30695 42.4747L6.2767 43.4437L6.08987 43.5578L5.90315 43.6719L5.75423 43.4717L5.60541 43.2715V42.3559V41.4405L5.7123 41.2409L5.81919 41.0414H6.02016H6.22113L6.27917 41.2735ZM37.0524 44.406L35.4 44.9741L34.8836 45.1344L34.3673 45.2946L33.7333 45.244L33.0993 45.1933L32.5041 44.9212L31.9088 44.6489L31.8522 44.7055L31.7957 44.762L32.9266 45.8737L34.0575 46.9856L34.9391 47.4177L35.8209 47.8498H36.3626H36.9043L37.3915 47.6031L37.8786 47.3563L38.049 47.1647L38.2195 46.973L38.4402 46.2266L38.661 45.4803L38.8636 45.372L39.0662 45.2637L39.2508 45.3623L39.4354 45.461L39.6241 46.0904L39.8128 46.7197L40.0364 47.0511L40.26 47.3825L40.6701 47.6144L41.0801 47.8464L41.5451 47.8482L42.0102 47.8498L42.6972 47.6536L43.3843 47.4573L43.8329 47.1942L44.2816 46.931L44.8919 46.4362L45.5024 45.9414L46.0189 45.3477L46.5354 44.754L46.4891 44.7077L46.4428 44.6615L45.7236 44.9326L45.0045 45.2036L44.1267 45.2011L43.2489 45.1987L42.0612 44.7772L40.8736 44.3557L40.1506 44.0956L39.4277 43.8354L39.0662 43.8367L38.7048 43.8379L37.0524 44.406ZM11.4481 48.6625L11.3764 48.7786L11.5977 49.4332L11.8191 50.0879L12.3348 50.2068L12.8504 50.3256H13.1412H13.4321L13.4964 50.1583L13.5607 49.991L13.4932 49.333L13.4257 48.6751L13.0011 48.6742L12.5764 48.6734L12.0482 48.6099L11.5199 48.5465L11.4481 48.6625ZM22.0299 48.7531L21.3627 48.7892L21.2296 48.8996L21.0965 49.0099V49.6677V50.3256H25.5373H29.9781V50.1377V49.9497L29.8095 49.4414L29.6408 48.933L29.556 48.8397L29.4713 48.7465L26.0843 48.7317L22.6973 48.717L22.0299 48.7531ZM48.3779 48.8298L48.3106 48.933L48.1307 49.5004L47.9508 50.0677L47.9494 50.1967L47.9478 50.3256H52.176H56.4041L56.4673 50.2235L56.5304 50.1215L56.4214 49.532L56.3123 48.9426L56.2038 48.8346L56.0953 48.7267H52.2703H48.4451L48.3779 48.8298ZM64.6631 48.7442L64.4929 48.7893L64.432 49.0159L64.3712 49.2425L64.3699 49.7325L64.3684 50.2225H65.1837H65.9988L66.2681 49.5508L66.5372 48.8793V48.7771V48.6751L65.6852 48.6871L64.8332 48.699L64.6631 48.7442ZM40.1322 49.4205L39.9183 49.6551L39.8021 49.8804L39.6859 50.1058V50.3469V50.5881L39.9921 50.9592L40.2984 51.3303L40.6532 51.4985L41.008 51.6667L41.5604 51.6661L42.1128 51.6656L42.5012 51.5579L42.8896 51.4501L43.3015 51.0586L43.7136 50.6671V50.308V49.949L43.4682 49.7187L43.2228 49.4884L42.5646 49.4017L41.9063 49.3148L41.1263 49.2504L40.3461 49.1859L40.1322 49.4205ZM36.536 49.402L36.0197 49.4823L35.4968 49.4913L34.9739 49.5004L34.6792 49.8077L34.3845 50.1149V50.4123V50.7097L34.6108 51.0272L34.8371 51.3446L35.3962 51.6088L35.9552 51.873H36.4138H36.8723L37.2398 51.7196L37.6075 51.5661L37.9236 51.2296L38.2396 50.893L38.3462 50.5726L38.4528 50.2522L38.3506 49.9836L38.2483 49.7149L38.0376 49.5045L37.827 49.2941L37.4397 49.3079L37.0524 49.3216L36.536 49.402ZM36.0495 53.6311L35.0465 53.8215L34.836 53.934L34.6255 54.0466V54.3339V54.6211L34.9871 55.0433L35.3489 55.4653L35.8853 55.7324L36.4217 55.9993H36.9215H37.4211L37.6739 55.834L37.9266 55.6685L38.1476 55.3113L38.3686 54.954L38.3162 54.4889L38.2637 54.0237L37.9743 53.722L37.6851 53.4204L37.3687 53.4306L37.0524 53.4407L36.0495 53.6311ZM40.0481 53.8745L39.7706 54.2379L39.7228 54.6287L39.6751 55.0193L39.886 55.3555L40.0971 55.6917L40.4337 55.9028L40.7703 56.1137L41.2324 56.0554L41.6946 55.997L42.1619 55.7545L42.6292 55.5122L42.9649 55.0772L43.3005 54.6423V54.2351V53.8279L43.0419 53.7297L42.7833 53.6315L42.3964 53.6525L42.0096 53.6734L41.1676 53.5922L40.3256 53.5111L40.0481 53.8745ZM11.7516 55.1719L11.6891 55.273L11.7971 55.4747L11.9051 55.6764V55.8222V55.9681L10.1035 57.2216L8.3019 58.4751H8.1472H7.99239L7.84615 58.2666L7.69981 58.0579L7.52456 58.1251L7.3492 58.1923L7.39454 58.3104L7.43998 58.4285L8.20772 59.5239L8.97546 60.6194L9.15557 60.5186L9.33578 60.4179L9.17457 60.1723L9.01346 59.9266V59.7354V59.5442L9.6961 59.0536L10.3786 58.5631L10.4965 58.522L10.6142 58.4807L11.1107 59.2L11.607 59.9194L11.6787 59.9178L11.7502 59.9162L11.8979 59.8228L12.0456 59.7294L11.5 58.9411L10.9543 58.1527L10.9907 58.1253L11.0273 58.0981L11.8799 57.5181L12.7326 56.9383L13.145 57.496L13.5575 58.0537V58.2846V58.5155L13.2787 58.8062L12.9997 59.097L13.1723 59.2694L13.3449 59.4417L13.5802 59.3142L13.8157 59.1867L14.1698 58.8958L14.524 58.605L13.292 56.8417L12.0601 55.0783L11.9371 55.0746L11.8141 55.0709L11.7516 55.1719ZM65.3606 55.8894L64.7815 56.7148V56.8127V56.9105L64.9106 56.9544L65.0397 56.9983L65.2188 56.8876L65.3979 56.7771L65.5711 56.9501L65.7443 57.1231L65.9823 58.1809L66.2203 59.2386L66.1781 59.2808L66.136 59.323L65.3038 58.7372L64.4717 58.1514V58.0268V57.9021L64.6247 57.6839L64.7777 57.4656L64.6203 57.3352L64.4629 57.2047L64.375 57.2983L64.2871 57.392L63.646 58.3136L63.0048 59.2351L62.9529 59.37L62.9011 59.505L63.0734 59.571L63.2456 59.637L63.406 59.4082L63.5664 59.1795L63.735 59.224L63.9037 59.2685L65.6335 60.488L67.3634 61.7075V61.9275V62.1476L67.2484 62.2624L67.1335 62.3772L67.2029 62.4893L67.2723 62.6015L67.3953 62.6004L67.5183 62.5993L68.2607 61.5431L69.0032 60.4867L68.8454 60.332L68.6875 60.1772L68.5292 60.4094L68.3709 60.6415H68.2034H68.0358L67.3898 60.2039L66.7437 59.7663V59.5219V59.2774L67.0794 59.3363L67.415 59.3952L68.4099 59.4642L69.4047 59.5332L69.8557 59.1165L70.3067 58.6997L70.4869 58.3919L70.667 58.0842L70.5072 58.0229L70.3475 57.9617L70.0904 58.1299L69.8334 58.2981L68.2124 58.224L66.5913 58.1501L66.5223 58.0384L66.4532 57.9268L66.2754 57.0122L66.0975 56.0978L66.1521 55.6915L66.2066 55.2853L66.0731 55.1746L65.9396 55.064L65.3606 55.8894ZM21.5571 65.4965L21.4781 65.6242L21.7475 65.8202L22.0169 66.0162L21.9197 66.2714L21.8227 66.5265L20.8832 68.1488L19.9438 69.771L19.8002 69.919L19.6568 70.067L19.4054 69.9326L19.1541 69.7982L19.0409 69.868L18.9278 69.9379V70.0309V70.124L20.0805 70.8033L21.2333 71.4827L21.3183 71.349L21.4032 71.2152L21.4048 71.1414L21.4064 71.0677L21.1998 70.9573L20.9933 70.8469L20.9936 70.6184L20.9938 70.3899L21.3659 69.771L21.738 69.152L21.7709 69.1168L21.8039 69.0816L22.0183 69.1495L22.2326 69.2175V70.4921V71.7668L22.4784 72.0583L22.7241 72.3499L23.1385 72.5823L23.5528 72.8148L23.6156 72.6513L23.6784 72.4878L23.5235 72.267L23.3686 72.0461V70.8311V69.6162H23.7664H24.1642L24.5061 69.3841L24.8481 69.152L25.0489 68.7632L25.2498 68.3744L25.1819 68.0132L25.114 67.6518L24.7943 67.2881L24.4745 66.9243L23.2329 66.1929L21.9911 65.4614L21.8137 65.4151L21.6363 65.3688L21.5571 65.4965ZM53.473 66.8485L53.0599 67.0632L53.0266 67.092L52.9934 67.1209L53.2074 69.3543L53.4214 71.5877V72.1526V72.7175L53.2664 72.7768L53.1115 72.8362V72.9831V73.1301L53.2553 73.1852L53.3991 73.2403L54.2434 72.8162L55.0878 72.3921L55.0441 72.2679L55.0003 72.1436L54.6321 72.1728L54.264 72.2021L54.1945 72.0897L54.1249 71.9772L54.0504 71.4292L53.9759 70.8812L54.8494 70.4485L55.7229 70.0158L56.1213 70.4043L56.5196 70.7928V71.0229V71.2528L56.313 71.3183L56.1065 71.3838V71.4716V71.5593L56.1657 71.7133L56.2248 71.8673L57.3791 71.3112L58.5334 70.7552V70.5726V70.3899L58.1863 70.4239L57.8392 70.4578L55.9109 68.5412L53.9824 66.6246L53.9343 66.6292L53.8861 66.6337L53.473 66.8485ZM23.6295 66.9807L23.9616 67.2338L24.013 67.4305L24.0645 67.6271L23.9313 68.0144L23.798 68.4015L23.5123 68.6995L23.2267 68.9973H22.9826H22.7387L22.4339 68.8399L22.1293 68.6825V68.5818V68.4811L22.6198 67.6069L23.1104 66.7328L23.204 66.7303L23.2974 66.7278L23.6295 66.9807ZM55.2757 69.6198L55.2803 69.6751L54.6148 70.003L53.9492 70.3307L53.8993 70.154L53.8493 69.9773L53.786 69.3068L53.7226 68.6362L53.6669 68.2236L53.6114 67.811L54.4412 68.6878L55.2711 69.5647L55.2757 69.6198ZM36.5877 70.5446V70.751H36.8252H37.0627L37.1867 70.8748L37.3106 70.9986V73.1984V75.3982L37.0437 75.4995L36.7769 75.6008L36.6823 75.5425L36.5877 75.4841V75.7481V76.012H38.9113H41.235V75.2899V74.5678H40.9809H40.7266L40.6183 74.9698L40.5098 75.3718L40.3476 75.434L40.1853 75.4962H39.3676H38.5499V74.3615V73.2268H39.4793H40.4088V73.0204V72.8141H39.4793H38.5499V71.8341V70.8541H39.3725H40.195L40.3019 71.0536L40.4088 71.2533V71.5178V71.7825H40.7262H41.0434L41.0192 71.1894L40.9948 70.5962L40.9489 70.4673L40.9031 70.3383H38.7454H36.5877V70.5446Z" fill="white"/>
</svg>
