<svg width="19" height="24" viewBox="0 0 19 24" fill="none" xmlns="http://www.w3.org/2000/svg">
<path fill-rule="evenodd" clip-rule="evenodd" d="M8.87927 0.0293911C7.31001 0.284885 6.05193 1.20599 5.36844 2.59995C5.0216 3.30725 4.90796 3.80319 4.87775 4.7408L4.85132 5.56099L3.13882 5.57661L1.42627 5.59222L1.09517 5.7539C0.674373 5.9593 0.357944 6.2838 0.157654 6.71533L0 7.05488V14.7871V22.5194L0.166772 22.8668C0.373378 23.2972 0.775842 23.6894 1.18447 23.8586L1.47721 23.9799L9.36832 23.9937C17.9737 24.0088 17.5745 24.0215 18.082 23.7166C18.3854 23.5342 18.7022 23.1687 18.8645 22.8137L19 22.5172V14.786V7.05488L18.8423 6.71533C18.6421 6.2838 18.3256 5.9593 17.9048 5.7539L17.5737 5.59222L15.8612 5.57661L14.1487 5.56099L14.1222 4.7408C14.1003 4.06046 14.0731 3.84232 13.9625 3.46156C13.3726 1.43124 11.7195 0.0975611 9.67828 0.00530954C9.39812 -0.0073842 9.03855 0.00348124 8.87927 0.0293911ZM10.1171 1.77559C10.8169 1.92771 11.6085 2.49171 11.9997 3.11689C12.3193 3.62773 12.415 3.996 12.4425 4.82172L12.4673 5.56611H9.50642H6.54558V4.95022C6.54558 3.92297 6.76532 3.3167 7.37709 2.65626C7.67299 2.33683 7.81949 2.22661 8.19837 2.03861C8.87275 1.70397 9.43378 1.62703 10.1171 1.77559ZM4.87383 8.12209C4.88845 8.86966 4.90093 8.96928 4.99664 9.10154C5.1842 9.3608 5.4123 9.48392 5.70509 9.48392C6.04149 9.48392 6.27413 9.33374 6.43097 9.01535C6.53391 8.8064 6.54558 8.70658 6.54558 8.03632V7.28995H9.5H12.4544V8.03632C12.4544 8.70658 12.4661 8.8064 12.569 9.01535C12.8639 9.61384 13.6007 9.65814 14.0034 9.10154C14.0991 8.96928 14.1115 8.86966 14.1262 8.12209L14.1424 7.28995H15.6823C16.8121 7.28995 17.2386 7.30666 17.2834 7.35263C17.3303 7.40079 17.3445 9.12484 17.3445 14.7947C17.3445 22.0369 17.3427 22.175 17.246 22.2281C17.1086 22.3034 1.89144 22.3034 1.75401 22.2281C1.65733 22.175 1.6555 22.0369 1.6555 14.7947C1.6555 9.12484 1.66966 7.40079 1.71662 7.35263C1.76145 7.30666 2.18785 7.28995 3.31766 7.28995H4.85758L4.87383 8.12209Z" fill="white"/>
</svg>
