<svg width="429" height="428" viewBox="0 0 429 428" fill="none" xmlns="http://www.w3.org/2000/svg">
<path fill-rule="evenodd" clip-rule="evenodd" d="M93.5222 1.02162C77.0792 3.11062 56.1173 11.6696 43.0223 21.6406C19.8473 39.2886 4.59925 65.8906 1.05825 94.8536C-0.35275 106.397 -0.35275 321.363 1.05825 332.906C2.50925 344.775 5.42425 354.859 10.5112 365.614C26.6022 399.626 57.8992 422.309 94.9962 426.844C106.539 428.255 321.505 428.255 333.048 426.844C349.86 424.789 366.98 418.376 381.145 408.829C405.821 392.197 423.27 363.297 426.986 332.906C428.397 321.363 428.397 106.397 426.986 94.8536C424.931 78.0416 418.518 60.9216 408.971 46.7566C392.339 22.0806 363.439 4.63162 333.048 0.915622C322.539 -0.369378 103.709 -0.272379 93.5222 1.02162ZM338.449 81.1766C343.928 84.2066 347.916 90.1876 348.663 96.4986C351.081 116.913 325.284 128.153 312.265 112.358C297.623 94.5946 318.263 70.0166 338.449 81.1766ZM239.209 110.728C278.666 121.188 306.849 149.38 317.15 188.693C319.776 198.714 320.691 217.877 319.073 228.946C314.169 262.482 292.795 292.581 263.094 307.774C244.856 317.103 228.983 320.546 208.611 319.59C161.614 317.384 123.098 285.646 110.894 239.067C108.268 229.046 107.353 209.883 108.971 198.814C115.587 153.572 149.97 117.941 195.356 109.296C205.762 107.314 229.219 108.08 239.209 110.728ZM198.022 151.399C175.213 157.626 157.15 176.017 151.417 198.854C148.997 208.494 149.888 226.108 153.252 235.122C160.215 253.779 173.861 267.451 192.78 274.727C198.92 277.088 200.817 277.32 214.022 277.32C227.227 277.32 229.124 277.088 235.264 274.727C254.14 267.468 267.61 253.998 274.869 235.122C277.23 228.982 277.462 227.085 277.462 213.88C277.462 200.675 277.23 198.778 274.869 192.638C267.595 173.724 253.945 160.098 235.264 153.101C226.665 149.88 206.896 148.977 198.022 151.399Z" fill="white"/>
</svg>
