<svg width="513" height="512" viewBox="0 0 513 512" fill="none" xmlns="http://www.w3.org/2000/svg">
<path fill-rule="evenodd" clip-rule="evenodd" d="M231 0.512516C210.702 2.59252 182.833 9.19752 164.699 16.2235C130.111 29.6265 101.374 48.3825 74.962 74.7955C38.109 111.649 14.747 155.162 4.61 205.834C1.069 223.533 0 235.127 0 255.834C0 276.413 1.073 288.168 4.517 305.334C12.7 346.122 28.759 381.056 54.853 414.834C58.464 419.509 67.737 429.636 75.459 437.338C110.71 472.498 152.328 495.313 201.103 506.215C218.515 510.107 235.385 511.834 256 511.834C298.022 511.834 334.481 503.254 371 484.771C397.009 471.608 416.089 457.762 437.038 436.848C472.521 401.425 495.431 359.722 506.422 310.55C513.968 276.791 513.968 234.877 506.422 201.118C495.391 151.768 472.702 110.46 437.038 74.7955C416.161 53.9185 395.5 38.9685 369.828 26.1625C343.539 13.0495 312.902 4.04952 283.789 0.888516C274.879 -0.0794836 239.248 -0.333484 231 0.512516ZM310.793 118.903C313.2 136.579 320.5 150.452 334.15 163.293C340.315 169.093 344.422 171.953 351.373 175.287C361.016 179.913 371.883 182.834 379.447 182.834H384V206.334V229.834L379.25 229.83C360.649 229.814 334.194 221.006 316.5 208.937L310.5 204.844L309.945 266.089C309.64 299.774 309.035 328.459 308.601 329.834C308.168 331.209 306.892 335.259 305.767 338.834C301.599 352.072 295.361 362.425 285.061 373.196C272.904 385.909 257.591 394.753 240.377 399.003C228.024 402.052 210.005 402.06 197.699 399.021C164.888 390.918 139.64 366.257 130.796 333.671C128.91 326.721 128.545 322.921 128.603 310.834C128.665 298.04 128.994 295.275 131.397 287.334C136.38 270.869 146.76 254.355 158.217 244.665C177.401 228.44 197.482 221.253 221.5 222.016L231.5 222.334L231.768 246.198C232.016 268.232 231.907 270.012 230.351 269.415C226.71 268.018 217.203 267.676 211.5 268.736C190.446 272.651 176 290.186 176 311.827C176 325.937 182.186 338.294 193.371 346.528C205.789 355.67 223.605 357.483 237.432 351.012C245.233 347.362 253.639 339.75 257.302 333.02C263.166 322.246 263 325.747 263 213.124V109.834H286.279H309.558L310.793 118.903Z" fill="white"/>
</svg>
