<svg width="512" height="362" viewBox="0 0 512 362" fill="none" xmlns="http://www.w3.org/2000/svg">
<path fill-rule="evenodd" clip-rule="evenodd" d="M115.423 0.839906C79.433 2.28391 58.091 6.6299 39 16.4029C21.016 25.6089 10.644 39.0689 4.988 60.5429C0.482 77.6469 0 88.3179 0 170.869C0 218.306 0.414 252.696 1.066 259.375C7.034 320.513 31.657 347.851 89.746 357.831C110.588 361.412 140.254 361.998 275 361.49C403.071 361.007 409.63 360.827 430.925 357.203C472.515 350.125 496.368 328.738 506.048 289.847C511.435 268.201 511.5 266.814 511.5 173.799C511.5 95.6179 511.328 86.2159 509.714 76.0369C503.396 36.2059 486.197 16.6539 449.264 7.3179C434.723 3.6419 419.568 1.86891 393.5 0.794908C367.16 -0.290092 142.668 -0.254094 115.423 0.839906ZM272 134.742C337.237 168.648 331.757 165.528 334.598 170.376C339.758 179.182 336.751 187.55 326.253 193.597C311.222 202.255 219.274 249.624 216.253 250.266C212.338 251.099 206.381 249.352 203.155 246.426C197.866 241.629 198 243.391 198 178.75C198 111.167 197.706 113.938 205.371 109.234C213.417 104.296 213.43 104.301 272 134.742Z" fill="white"/>
</svg>
